<svg width="2469" height="452" viewBox="0 0 2469 452" fill="none" xmlns="http://www.w3.org/2000/svg">
<g filter="url(#filter0_i)">
<path d="M674 234.839C674 315.364 523.12 380.642 337 380.642C150.88 380.642 0 315.364 0 234.839C0 154.315 150.88 89.0365 337 89.0365C523.12 89.0365 674 154.315 674 234.839Z" fill="url(#paint0_linear)"/>
<path d="M666.627 220.889C703.973 367.578 233.108 461.868 120.404 450.038C215.809 447.544 666.193 204.17 666.627 220.889Z" fill="url(#paint1_linear)"/>
<g filter="url(#filter1_d)">
<path d="M314.035 379.715C270.41 235.395 720.768 103.707 833.757 110.58C738.653 117.207 315.192 396.33 314.035 379.715Z" fill="#060606"/>
</g>
<path d="M893.5 61.0361L690.647 224.29L636.978 97.9707L893.5 61.0361Z" fill="black"/>
</g>
<path d="M939.908 98.5527H1066.69C1070.94 105.584 1074.09 113.274 1076.14 121.624C1078.19 129.827 1079.21 137.225 1079.21 143.816C1079.21 158.611 1076.29 169.744 1070.43 177.215C1064.71 184.686 1056.66 188.421 1046.26 188.421H957.706C952.286 188.421 949.576 190.545 949.576 194.793V196.551C949.576 197.43 949.723 198.016 950.016 198.309H1055.04C1057.68 202.85 1059.95 208.562 1061.86 215.447C1063.61 222.918 1064.49 229.583 1064.49 235.442C1064.49 252.874 1061.27 266.497 1054.83 276.312H1007.14C984.879 276.312 969.791 277.19 961.881 278.948C953.971 280.56 949.063 281.951 947.159 283.123C945.255 284.441 944.303 286.126 944.303 288.177C944.303 290.228 945.328 291.839 947.379 293.011C954.996 290.521 962.979 288.763 971.329 287.737C982.315 286.712 994.254 286.199 1007.14 286.199H1068.89C1077.82 298.797 1082.29 313.958 1082.29 331.683C1082.29 341.644 1081.05 351.165 1078.56 360.247C1076.07 369.329 1072.33 376.653 1067.35 382.22H902.774C884.61 382.22 870.035 377.825 859.049 369.036C847.037 359.661 841.031 345.892 841.031 327.728V118.768C841.031 111.736 849.088 106.609 865.201 103.387C881.314 100.164 906.217 98.5527 939.908 98.5527ZM1326.63 273.235C1326.63 283.782 1327.8 292.278 1330.14 298.724C1332.49 305.169 1336.59 310.223 1342.45 313.885C1342.59 314.617 1342.67 316.009 1342.67 318.06V322.015C1342.67 342.229 1336.81 357.977 1325.09 369.256C1313.52 380.389 1298.5 385.955 1280.04 385.955C1261.73 385.955 1246.87 380.755 1235.44 370.354C1222.11 358.489 1215.45 340.472 1215.45 316.302C1215.45 306.048 1215.88 297.039 1216.76 289.275C1217.79 281.365 1218.45 275.726 1218.74 272.356C1219.18 268.987 1219.62 265.838 1220.06 262.908C1220.5 259.979 1220.72 255.657 1220.72 249.944C1220.72 244.231 1219.91 240.13 1218.3 237.64C1216.84 235.149 1214.71 233.904 1211.93 233.904C1209.29 233.904 1206.95 234.49 1204.9 235.662L1207.75 271.478C1205.12 286.272 1203.8 301.946 1203.8 318.499C1203.8 335.052 1207.54 350.14 1215.01 363.763C1200.65 378.558 1180.51 385.955 1154.58 385.955C1139.79 385.955 1126.97 382.073 1116.13 374.31C1103.53 365.521 1097.23 353.875 1097.23 339.373V233.025C1088.59 220.867 1084.27 205.926 1084.27 188.201C1084.27 170.33 1088.59 154.876 1097.23 141.839H1136.34C1146.74 141.839 1155.61 145.721 1162.93 153.484C1156.49 159.49 1153.26 164.471 1153.26 168.426C1153.26 172.967 1155.83 175.237 1160.95 175.237C1167.4 164.104 1177.21 154.876 1190.4 147.552C1203.73 140.228 1218.81 136.565 1235.66 136.565C1261 136.565 1281.58 142.791 1297.4 155.242C1317.33 170.916 1327.29 195.232 1327.29 228.191L1326.63 273.235ZM1464.4 139.861L1457.36 279.388C1459.12 279.827 1460.66 280.047 1461.98 280.047C1466.81 280.047 1469.52 276.385 1470.11 269.061L1479.78 109.1C1484.32 105.145 1492.67 101.629 1504.83 98.5527C1516.4 95.916 1526.87 94.5977 1536.25 94.5977C1558.37 94.5977 1574.92 99.6514 1585.9 109.759C1596.89 119.866 1602.38 132.903 1602.38 148.87C1602.38 157.806 1598.72 177.874 1591.4 209.075C1584.22 240.13 1573.82 282.171 1560.2 335.198C1555.22 353.802 1544.01 367.205 1526.58 375.408C1511.34 382.439 1491.2 385.955 1466.15 385.955C1450.33 385.955 1435.39 384.197 1421.33 380.682C1407.27 377.166 1395.99 372.112 1387.49 365.521C1375.92 340.032 1364.27 305.022 1352.55 260.491C1340.84 215.813 1332.05 170.623 1326.19 124.92C1339.96 104.559 1361.86 94.3779 1391.89 94.3779C1430.56 94.3779 1454.73 109.539 1464.4 139.861ZM1715.54 259.612V298.064C1716.57 299.09 1718.25 299.603 1720.6 299.603C1722.94 299.603 1724.62 298.797 1725.65 297.186C1726.68 295.574 1727.19 292.791 1727.19 288.836V257.415C1727.19 243.353 1726.6 234.051 1725.43 229.51C1724.26 224.822 1722.06 222.479 1718.84 222.479C1716.79 222.479 1715.03 223.211 1713.57 224.676C1714.88 239.178 1715.54 250.823 1715.54 259.612ZM1633.37 356.951C1609.34 333.807 1597.33 302.459 1597.33 262.908C1597.33 223.211 1608.61 191.937 1631.17 169.085C1653.87 146.087 1683.61 134.588 1720.38 134.588C1757.14 134.588 1786.88 146.526 1809.59 170.403C1832.14 194.28 1843.42 225.408 1843.42 263.787C1843.42 302.02 1832.51 332.415 1810.68 354.974C1789 377.532 1759.49 388.812 1722.13 388.812C1684.78 388.812 1655.19 378.191 1633.37 356.951ZM1967.79 116.79V271.258C1967.79 293.084 1973.06 307.293 1983.61 313.885C1983.76 314.617 1983.83 316.009 1983.83 318.06V322.015C1983.83 342.962 1978.48 358.855 1967.79 369.695C1957.24 380.535 1942.23 385.955 1922.75 385.955C1903.26 385.955 1887.81 380.535 1876.38 369.695C1862.76 356.805 1855.95 337.322 1855.95 311.248V82.9521C1871.33 73.5771 1888.91 68.8896 1908.68 68.8896C1928.6 68.8896 1943.4 73.1377 1953.07 81.6338C1962.88 89.9834 1967.79 101.702 1967.79 116.79ZM2098.31 274.554V279.827C2098.31 282.317 2098.38 284.075 2098.53 285.101C2100.28 285.833 2101.97 286.199 2103.58 286.199C2107.83 286.199 2109.95 283.343 2109.95 277.63C2109.95 262.688 2111.71 234.563 2115.23 193.255C2117.13 170.843 2118.3 157.659 2118.74 153.704C2132.51 144.476 2148.99 139.861 2168.18 139.861C2187.52 139.861 2202.46 144.988 2213 155.242C2222.38 164.617 2227.07 176.775 2227.07 191.717C2227.07 201.824 2225.67 212.298 2222.89 223.138C2209.27 275.726 2195.72 317.107 2182.24 347.283C2175.06 362.957 2164.15 373.65 2149.5 379.363C2138.66 383.758 2123.21 385.955 2103.14 385.955C2092.45 385.955 2081.83 385.076 2071.28 383.318C2060.88 381.561 2052.9 379.51 2047.33 377.166C2026.09 333.807 2008.58 285.833 1994.82 233.245C1990.27 228.704 1986.39 222.332 1983.17 214.129C1979.95 205.926 1978.34 197.43 1978.34 188.641C1978.34 170.477 1982.73 154.876 1991.52 141.839C1991.52 141.839 2009.76 141.839 2046.23 141.839C2065.42 141.839 2079.7 147.259 2089.08 158.099C2096.11 166.302 2100.65 178.24 2102.7 193.914C2099.77 221.16 2098.31 248.04 2098.31 274.554ZM2360.88 388.812C2320.3 388.812 2288.3 377.532 2264.86 354.974C2240.84 332.269 2228.82 301.214 2228.82 261.81C2228.82 222.259 2241.2 190.911 2265.96 167.767C2288.81 146.233 2317.74 135.467 2352.75 135.467C2387.76 135.467 2415.81 145.135 2436.91 164.471C2458.15 183.66 2468.77 207.317 2468.77 235.442C2468.77 260.491 2460.05 279.388 2442.62 292.132C2426.5 304.144 2404.53 310.149 2376.7 310.149C2355.9 310.149 2338.32 305.828 2323.97 297.186C2322.79 298.064 2322.21 299.676 2322.21 302.02C2322.21 306.414 2327.99 310.442 2339.57 314.104C2351.14 318.06 2364.25 320.037 2378.9 320.037C2393.69 320.037 2407.1 318.206 2419.11 314.544C2431.27 310.735 2441.01 306.268 2448.33 301.141C2451.85 304.217 2454.63 309.93 2456.68 318.279C2458.88 326.482 2459.98 334.026 2459.98 340.911C2459.98 347.649 2459.32 353.655 2458 358.929C2446.57 368.597 2434.85 375.481 2422.84 379.583C2405.85 385.735 2385.2 388.812 2360.88 388.812ZM2358.02 240.057C2365.35 240.057 2369.01 237.273 2369.01 231.707C2369.01 226.434 2365.13 223.797 2357.36 223.797C2349.6 223.797 2345.13 227.972 2343.96 236.321C2348.06 238.812 2352.75 240.057 2358.02 240.057Z" fill="#F7F7F7"/>
<defs>
<filter id="filter0_i" x="0" y="0" width="926.237" height="461.036" filterUnits="userSpaceOnUse" color-interpolation-filters="sRGB">
<feFlood flood-opacity="0" result="BackgroundImageFix"/>
<feBlend mode="normal" in="SourceGraphic" in2="BackgroundImageFix" result="shape"/>
<feColorMatrix in="SourceAlpha" type="matrix" values="0 0 0 0 0 0 0 0 0 0 0 0 0 0 0 0 0 0 127 0" result="hardAlpha"/>
<feOffset dx="5" dy="10"/>
<feGaussianBlur stdDeviation="5"/>
<feComposite in2="hardAlpha" operator="arithmetic" k2="-1" k3="1"/>
<feColorMatrix type="matrix" values="0 0 0 0 0 0 0 0 0 0 0 0 0 0 0 0 0 0 0.25 0"/>
<feBlend mode="normal" in2="shape" result="effect1_innerShadow"/>
</filter>
<filter id="filter1_d" x="296.043" y="109.151" width="562.922" height="280.483" filterUnits="userSpaceOnUse" color-interpolation-filters="sRGB">
<feFlood flood-opacity="0" result="BackgroundImageFix"/>
<feColorMatrix in="SourceAlpha" type="matrix" values="0 0 0 0 0 0 0 0 0 0 0 0 0 0 0 0 0 0 127 0"/>
<feOffset dx="5" dy="5"/>
<feGaussianBlur stdDeviation="2"/>
<feColorMatrix type="matrix" values="0 0 0 0 0 0 0 0 0 0 0 0 0 0 0 0 0 0 0.25 0"/>
<feBlend mode="normal" in2="BackgroundImageFix" result="effect1_dropShadow"/>
<feBlend mode="normal" in="SourceGraphic" in2="effect1_dropShadow" result="shape"/>
</filter>
<linearGradient id="paint0_linear" x1="689.739" y1="138.257" x2="336.048" y2="449.956" gradientUnits="userSpaceOnUse">
<stop offset="0.09375" stop-color="#FAFAFA"/>
<stop offset="1" stop-color="#7FC9E9"/>
</linearGradient>
<linearGradient id="paint1_linear" x1="689.739" y1="138.257" x2="336.048" y2="449.956" gradientUnits="userSpaceOnUse">
<stop offset="0.09375" stop-color="#FAFAFA"/>
<stop offset="1" stop-color="#7FC9E9"/>
</linearGradient>
</defs>
</svg>
