<svg width="1140" height="375" viewBox="0 0 1140 375" fill="none" xmlns="http://www.w3.org/2000/svg">
<g filter="url(#filter0_i)">
<path d="M466 216.818C466 266.423 361.682 306.635 233 306.635C104.318 306.635 0 266.423 0 216.818C0 167.213 104.318 127 233 127C361.682 127 466 167.213 466 216.818Z" fill="url(#paint0_linear)"/>
<path d="M460.902 208.224C486.723 298.588 161.169 356.673 83.2467 349.385C149.209 347.848 460.602 197.925 460.902 208.224Z" fill="url(#paint1_linear)"/>
</g>
<g filter="url(#filter1_d)">
<path d="M217.385 296.624C-73.915 68.3194 839.459 74.9206 1097.5 92.0001C878.432 86.5698 81.8845 103.624 217.385 296.624Z" fill="#F7F7F7"/>
<path d="M1134 92L986.393 104.849L986.393 64L1134 92Z" fill="#F7F7F7"/>
</g>
<g filter="url(#filter2_d)">
<path d="M587.619 292H488.961C480.978 292 476.986 289.803 476.986 285.408V149.507C476.986 145.113 480.978 142.916 488.961 142.916H587.619C595.089 142.916 598.825 144.966 598.825 149.068C598.825 153.169 595.089 155.22 587.619 155.22H499.289V211.25H573.666C581.063 211.25 584.762 213.301 584.762 217.403C584.762 221.504 581.063 223.555 573.666 223.555H499.289V279.695H587.619C595.089 279.695 598.825 281.746 598.825 285.848C598.825 289.949 595.089 292 587.619 292ZM689.813 294.637C682.416 294.637 678.717 292.586 678.717 288.484V231.575C678.717 223.006 676.374 214.693 671.686 206.636C666.999 198.58 659.601 194.551 649.494 194.551C638.654 194.551 630.67 198.946 625.543 207.735C620.417 216.451 617.853 225.386 617.853 234.542V288.484C617.853 292.586 614.154 294.637 606.757 294.637C599.286 294.637 595.551 292.586 595.551 288.484V188.399C595.551 184.297 599.286 182.247 606.757 182.247C614.154 182.247 617.853 184.297 617.853 188.399V194.991C625.91 186.421 636.896 182.137 650.812 182.137C665.46 182.137 677.472 186.824 686.847 196.199C696.295 205.501 701.02 217.256 701.02 231.465V288.484C701.02 292.586 697.284 294.637 689.813 294.637ZM748.722 294.637C742.277 294.637 738.358 293.099 736.967 290.022L692.472 189.278C692.252 188.692 692.143 188.216 692.143 187.85C692.143 184.114 696.134 182.247 704.118 182.247C710.197 182.247 713.896 183.748 715.214 186.751L751.579 269.039L787.833 185.542C788.786 183.345 791.605 182.247 796.293 182.247C802.152 182.247 805.082 183.602 805.082 186.312C805.082 186.458 805.009 186.824 804.862 187.41L760.368 290.022C759.049 293.099 755.167 294.637 748.722 294.637ZM845.094 294.637C827.956 294.637 813.673 289.546 802.248 279.366C790.895 269.185 785.219 255.525 785.219 238.387C785.219 221.248 790.895 207.588 802.248 197.408C813.673 187.227 827.956 182.137 845.094 182.137C862.233 182.137 876.479 187.227 887.831 197.408C899.257 207.588 904.97 221.248 904.97 238.387C904.97 255.525 899.257 269.185 887.831 279.366C876.479 289.546 862.233 294.637 845.094 294.637ZM845.094 282.442C857.326 282.442 866.627 277.828 873 268.599C879.445 259.297 882.667 249.227 882.667 238.387C882.667 227.474 879.445 217.403 873 208.174C866.627 198.946 857.326 194.332 845.094 194.332C832.936 194.332 823.634 198.946 817.189 208.174C810.744 217.403 807.521 227.474 807.521 238.387C807.521 249.227 810.744 259.297 817.189 268.599C823.634 277.828 832.936 282.442 845.094 282.442ZM907.409 294.637C899.938 294.637 896.203 292.586 896.203 288.484V146.431C896.203 142.33 899.938 140.279 907.409 140.279C914.806 140.279 918.505 142.33 918.505 146.431V288.484C918.505 292.586 914.806 294.637 907.409 294.637ZM963.571 294.637C957.125 294.637 953.207 293.099 951.815 290.022L907.321 189.278C907.101 188.692 906.991 188.216 906.991 187.85C906.991 184.114 910.983 182.247 918.966 182.247C925.045 182.247 928.744 183.748 930.062 186.751L966.427 269.039L1002.68 185.542C1003.63 183.345 1006.45 182.247 1011.14 182.247C1017 182.247 1019.93 183.602 1019.93 186.312C1019.93 186.458 1019.86 186.824 1019.71 187.41L975.216 290.022C973.898 293.099 970.016 294.637 963.571 294.637ZM1059.28 294.637C1042.66 294.637 1028.63 289.693 1017.21 279.805C1005.78 269.844 1000.07 256.258 1000.07 239.046C1000.07 221.541 1005.85 207.698 1017.43 197.518C1029.07 187.264 1043.35 182.137 1060.27 182.137C1076.39 182.137 1090.27 186.385 1101.91 194.881C1113.56 203.304 1119.38 215.938 1119.38 232.784C1119.38 237.471 1115.68 239.815 1108.28 239.815H1022.26C1022.41 250.655 1025.7 260.469 1032.15 269.258C1038.59 278.047 1047.67 282.442 1059.39 282.442C1067.82 282.442 1075.62 280.171 1082.79 275.63C1090.34 270.796 1094.44 265.083 1095.1 258.492C1095.47 254.683 1099.09 252.779 1105.98 252.779C1113.52 252.779 1117.29 254.793 1117.29 258.821C1117.29 260.872 1116.67 263.362 1115.42 266.292C1112.71 272.737 1107.55 278.45 1099.93 283.431C1088.51 290.901 1074.96 294.637 1059.28 294.637ZM1096.86 227.62C1094.51 205.428 1082.32 194.332 1060.27 194.332C1040.64 194.332 1028.41 205.428 1023.58 227.62H1096.86Z" fill="#F7F7F7"/>
</g>
<defs>
<filter id="filter0_i" x="0" y="127" width="466" height="227" filterUnits="userSpaceOnUse" color-interpolation-filters="sRGB">
<feFlood flood-opacity="0" result="BackgroundImageFix"/>
<feBlend mode="normal" in="SourceGraphic" in2="BackgroundImageFix" result="shape"/>
<feColorMatrix in="SourceAlpha" type="matrix" values="0 0 0 0 0 0 0 0 0 0 0 0 0 0 0 0 0 0 127 0" result="hardAlpha"/>
<feOffset dy="4"/>
<feGaussianBlur stdDeviation="2"/>
<feComposite in2="hardAlpha" operator="arithmetic" k2="-1" k3="1"/>
<feColorMatrix type="matrix" values="0 0 0 0 0 0 0 0 0 0 0 0 0 0 0 0 0 0 0.25 0"/>
<feBlend mode="normal" in2="shape" result="effect1_innerShadow"/>
</filter>
<filter id="filter1_d" x="150.664" y="0.595825" width="988.616" height="374.186" filterUnits="userSpaceOnUse" color-interpolation-filters="sRGB">
<feFlood flood-opacity="0" result="BackgroundImageFix"/>
<feColorMatrix in="SourceAlpha" type="matrix" values="0 0 0 0 0 0 0 0 0 0 0 0 0 0 0 0 0 0 127 0"/>
<feOffset dy="4"/>
<feGaussianBlur stdDeviation="2"/>
<feColorMatrix type="matrix" values="0 0 0 0 0 0 0 0 0 0 0 0 0 0 0 0 0 0 0.25 0"/>
<feBlend mode="normal" in2="BackgroundImageFix" result="effect1_dropShadow"/>
<feBlend mode="normal" in="SourceGraphic" in2="effect1_dropShadow" result="shape"/>
</filter>
<filter id="filter2_d" x="472.986" y="140.279" width="650.393" height="162.358" filterUnits="userSpaceOnUse" color-interpolation-filters="sRGB">
<feFlood flood-opacity="0" result="BackgroundImageFix"/>
<feColorMatrix in="SourceAlpha" type="matrix" values="0 0 0 0 0 0 0 0 0 0 0 0 0 0 0 0 0 0 127 0"/>
<feOffset dy="4"/>
<feGaussianBlur stdDeviation="2"/>
<feColorMatrix type="matrix" values="0 0 0 0 0 0 0 0 0 0 0 0 0 0 0 0 0 0 0.25 0"/>
<feBlend mode="normal" in2="BackgroundImageFix" result="effect1_dropShadow"/>
<feBlend mode="normal" in="SourceGraphic" in2="effect1_dropShadow" result="shape"/>
</filter>
<linearGradient id="paint0_linear" x1="476.882" y1="157.321" x2="257.271" y2="374.538" gradientUnits="userSpaceOnUse">
<stop offset="0.09375" stop-color="#FAFAFA"/>
<stop offset="1" stop-color="#7FC9E9"/>
</linearGradient>
<linearGradient id="paint1_linear" x1="476.882" y1="157.321" x2="257.271" y2="374.538" gradientUnits="userSpaceOnUse">
<stop offset="0.09375" stop-color="#FAFAFA"/>
<stop offset="1" stop-color="#7FC9E9"/>
</linearGradient>
</defs>
</svg>
