<svg width="1158" height="364" viewBox="0 0 1158 364" fill="none" xmlns="http://www.w3.org/2000/svg">
<g filter="url(#filter0_i)">
<path d="M466 205.818C466 255.423 361.682 295.635 233 295.635C104.318 295.635 0 255.423 0 205.818C0 156.213 104.318 116 233 116C361.682 116 466 156.213 466 205.818Z" fill="url(#paint0_linear)"/>
<path d="M460.902 197.224C486.723 287.588 161.169 345.673 83.2467 338.385C149.209 336.848 460.602 186.925 460.902 197.224Z" fill="url(#paint1_linear)"/>
</g>
<g filter="url(#filter1_d)">
<path d="M217.385 285.624C-73.9151 57.3193 839.459 63.9205 1097.5 80.9999C878.432 75.5696 81.8845 92.6238 217.385 285.624Z" fill="#F7F7F7"/>
<path d="M1134 80.9999L986.393 93.8485L986.393 64L1134 80.9999Z" fill="#F7F7F7"/>
</g>
<g filter="url(#filter2_d)">
<path d="M600.325 119.4V150.9H520V186.225H591.1V217.725H520V253.5H603.475V285H487.375V119.4H600.325ZM677.954 181.95C687.254 181.95 694.979 184.725 701.129 190.275C707.429 195.825 710.654 202.875 710.804 211.425V285H679.304V223.125C678.854 213.525 674.054 208.725 664.904 208.725C657.704 208.725 651.929 212.1 647.579 218.85C643.229 225.6 641.054 234.3 641.054 244.95V285H609.554V186.675H638.129L640.379 202.425C643.979 195.975 648.929 190.95 655.229 187.35C661.679 183.75 669.254 181.95 677.954 181.95ZM817.953 186.675L762.153 287.025H761.253L702.303 186.675H739.653L762.603 233.475L782.853 186.675H817.953ZM802.997 234.6C802.997 224.55 805.322 215.55 809.972 207.6C814.772 199.65 821.447 193.425 829.997 188.925C838.697 184.275 848.522 181.95 859.472 181.95C870.422 181.95 880.022 184.275 888.272 188.925C896.672 193.425 903.122 199.65 907.622 207.6C912.122 215.55 914.372 224.55 914.372 234.6C914.372 244.65 912.122 253.725 907.622 261.825C903.122 269.925 896.672 276.3 888.272 280.95C880.022 285.45 870.272 287.7 859.022 287.7C848.072 287.7 838.322 285.6 829.772 281.4C821.372 277.05 814.772 270.9 809.972 262.95C805.322 255 802.997 245.55 802.997 234.6ZM834.722 234.825C834.722 242.625 836.972 249.15 841.472 254.4C845.972 259.5 851.672 262.05 858.572 262.05C865.772 262.05 871.547 259.5 875.897 254.4C880.397 249.3 882.647 242.775 882.647 234.825C882.647 226.875 880.397 220.35 875.897 215.25C871.547 210.15 865.772 207.6 858.572 207.6C851.672 207.6 845.972 210.225 841.472 215.475C836.972 220.575 834.722 227.025 834.722 234.825ZM948.187 107.475V285H916.687V107.475H948.187ZM1059.83 186.675L1004.03 287.025H1003.13L944.178 186.675H981.528L1004.48 233.475L1024.73 186.675H1059.83ZM1101.57 260.925C1107.87 260.925 1114.4 258.75 1121.15 254.4L1135.1 277.8C1129.7 280.8 1124 283.2 1118 285C1112 286.8 1106.3 287.7 1100.9 287.7C1089.2 287.7 1079.07 285.525 1070.52 281.175C1062.12 276.675 1055.75 270.45 1051.4 262.5C1047.05 254.4 1044.87 245.175 1044.87 234.825C1044.87 225.225 1047.35 216.375 1052.3 208.275C1057.4 200.175 1064.3 193.8 1073 189.15C1081.7 184.35 1091.22 181.95 1101.57 181.95C1115.67 181.95 1127.22 186.075 1136.22 194.325C1145.37 202.575 1151.3 214.35 1154 229.65L1082 252.6C1086.8 258.15 1093.32 260.925 1101.57 260.925ZM1099.1 206.475C1092.05 206.475 1086.42 208.875 1082.22 213.675C1078.02 218.475 1075.92 224.925 1075.92 233.025V235.05L1119.12 220.425C1115.97 211.125 1109.3 206.475 1099.1 206.475Z" fill="#F7F7F7"/>
</g>
<defs>
<filter id="filter0_i" x="0" y="116" width="466" height="227" filterUnits="userSpaceOnUse" color-interpolation-filters="sRGB">
<feFlood flood-opacity="0" result="BackgroundImageFix"/>
<feBlend mode="normal" in="SourceGraphic" in2="BackgroundImageFix" result="shape"/>
<feColorMatrix in="SourceAlpha" type="matrix" values="0 0 0 0 0 0 0 0 0 0 0 0 0 0 0 0 0 0 127 0" result="hardAlpha"/>
<feOffset dy="4"/>
<feGaussianBlur stdDeviation="2"/>
<feComposite in2="hardAlpha" operator="arithmetic" k2="-1" k3="1"/>
<feColorMatrix type="matrix" values="0 0 0 0 0 0 0 0 0 0 0 0 0 0 0 0 0 0 0.25 0"/>
<feBlend mode="normal" in2="shape" result="effect1_innerShadow"/>
</filter>
<filter id="filter1_d" x="150.664" y="0.528687" width="987.759" height="363.253" filterUnits="userSpaceOnUse" color-interpolation-filters="sRGB">
<feFlood flood-opacity="0" result="BackgroundImageFix"/>
<feColorMatrix in="SourceAlpha" type="matrix" values="0 0 0 0 0 0 0 0 0 0 0 0 0 0 0 0 0 0 127 0"/>
<feOffset dy="4"/>
<feGaussianBlur stdDeviation="2"/>
<feColorMatrix type="matrix" values="0 0 0 0 0 0 0 0 0 0 0 0 0 0 0 0 0 0 0.25 0"/>
<feBlend mode="normal" in2="BackgroundImageFix" result="effect1_dropShadow"/>
<feBlend mode="normal" in="SourceGraphic" in2="effect1_dropShadow" result="shape"/>
</filter>
<filter id="filter2_d" x="483.375" y="107.475" width="674.622" height="188.225" filterUnits="userSpaceOnUse" color-interpolation-filters="sRGB">
<feFlood flood-opacity="0" result="BackgroundImageFix"/>
<feColorMatrix in="SourceAlpha" type="matrix" values="0 0 0 0 0 0 0 0 0 0 0 0 0 0 0 0 0 0 127 0"/>
<feOffset dy="4"/>
<feGaussianBlur stdDeviation="2"/>
<feColorMatrix type="matrix" values="0 0 0 0 0 0 0 0 0 0 0 0 0 0 0 0 0 0 0.25 0"/>
<feBlend mode="normal" in2="BackgroundImageFix" result="effect1_dropShadow"/>
<feBlend mode="normal" in="SourceGraphic" in2="effect1_dropShadow" result="shape"/>
</filter>
<linearGradient id="paint0_linear" x1="476.882" y1="146.321" x2="257.271" y2="363.538" gradientUnits="userSpaceOnUse">
<stop offset="0.09375" stop-color="#FAFAFA"/>
<stop offset="1" stop-color="#7FC9E9"/>
</linearGradient>
<linearGradient id="paint1_linear" x1="476.882" y1="146.321" x2="257.271" y2="363.538" gradientUnits="userSpaceOnUse">
<stop offset="0.09375" stop-color="#FAFAFA"/>
<stop offset="1" stop-color="#7FC9E9"/>
</linearGradient>
</defs>
</svg>
