<svg width="512" height="512" viewBox="0 0 512 512" fill="none" xmlns="http://www.w3.org/2000/svg">
<path d="M437.02 74.98C388.667 26.629 324.38 0 256 0C187.62 0 123.333 26.629 74.98 74.98C26.629 123.333 0 187.62 0 256C0 324.38 26.629 388.667 74.98 437.02C123.333 485.371 187.62 512 256 512C324.38 512 388.667 485.371 437.02 437.02C485.371 388.667 512 324.38 512 256C512 187.62 485.371 123.333 437.02 74.98ZM256 70C286.327 70 311 94.673 311 125C311 155.327 286.327 180 256 180C225.673 180 201 155.327 201 125C201 94.673 225.673 70 256 70ZM326 420H186V390H216V240H186V210H296V390H326V420Z" fill="#F7F7F7"/>
</svg>
