<svg width="1158" height="364" viewBox="0 0 1158 364" fill="none" xmlns="http://www.w3.org/2000/svg">
<g filter="url(#filter0_i)">
<path d="M466 205.818C466 255.423 361.682 295.635 233 295.635C104.318 295.635 0 255.423 0 205.818C0 156.213 104.318 116 233 116C361.682 116 466 156.213 466 205.818Z" fill="url(#paint0_linear)"/>
<path d="M460.902 197.224C486.723 287.588 161.169 345.673 83.2467 338.385C149.209 336.848 460.602 186.925 460.902 197.224Z" fill="url(#paint1_linear)"/>
</g>
<g filter="url(#filter1_d)">
<path d="M217.385 285.624C-73.915 57.3193 839.459 63.9205 1097.5 80.9999C878.432 75.5696 81.8845 92.6238 217.385 285.624Z" fill="#F7F7F7"/>
<path d="M1134 80.9999L986.393 93.8485L986.393 64L1134 80.9999Z" fill="#F7F7F7"/>
</g>
<g filter="url(#filter2_d)">
<path d="M600.325 119.4V150.9H520V186.225H591.1V217.725H520V253.5H603.475V285H487.375V119.4H600.325ZM677.954 181.95C687.254 181.95 694.979 184.725 701.129 190.275C707.429 195.825 710.654 202.875 710.804 211.425V285H679.304V223.125C678.854 213.525 674.054 208.725 664.904 208.725C657.704 208.725 651.929 212.1 647.579 218.85C643.229 225.6 641.054 234.3 641.054 244.95V285H609.554V186.675H638.129L640.379 202.425C643.979 195.975 648.929 190.95 655.229 187.35C661.679 183.75 669.254 181.95 677.954 181.95ZM817.953 186.675L762.153 287.025H761.253L702.303 186.675H739.653L762.603 233.475L782.853 186.675H817.953ZM802.997 234.6C802.997 224.55 805.322 215.55 809.972 207.6C814.772 199.65 821.447 193.425 829.997 188.925C838.697 184.275 848.522 181.95 859.472 181.95C870.422 181.95 880.022 184.275 888.272 188.925C896.672 193.425 903.122 199.65 907.622 207.6C912.122 215.55 914.372 224.55 914.372 234.6C914.372 244.65 912.122 253.725 907.622 261.825C903.122 269.925 896.672 276.3 888.272 280.95C880.022 285.45 870.272 287.7 859.022 287.7C848.072 287.7 838.322 285.6 829.772 281.4C821.372 277.05 814.772 270.9 809.972 262.95C805.322 255 802.997 245.55 802.997 234.6ZM834.722 234.825C834.722 242.625 836.972 249.15 841.472 254.4C845.972 259.5 851.672 262.05 858.572 262.05C865.772 262.05 871.547 259.5 875.897 254.4C880.397 249.3 882.647 242.775 882.647 234.825C882.647 226.875 880.397 220.35 875.897 215.25C871.547 210.15 865.772 207.6 858.572 207.6C851.672 207.6 845.972 210.225 841.472 215.475C836.972 220.575 834.722 227.025 834.722 234.825ZM948.187 107.475V285H916.687V107.475H948.187ZM1059.83 186.675L1004.03 287.025H1003.13L944.178 186.675H981.528L1004.48 233.475L1024.73 186.675H1059.83ZM1101.57 260.925C1107.87 260.925 1114.4 258.75 1121.15 254.4L1135.1 277.8C1129.7 280.8 1124 283.2 1118 285C1112 286.8 1106.3 287.7 1100.9 287.7C1089.2 287.7 1079.07 285.525 1070.52 281.175C1062.12 276.675 1055.75 270.45 1051.4 262.5C1047.05 254.4 1044.87 245.175 1044.87 234.825C1044.87 225.225 1047.35 216.375 1052.3 208.275C1057.4 200.175 1064.3 193.8 1073 189.15C1081.7 184.35 1091.22 181.95 1101.57 181.95C1115.67 181.95 1127.22 186.075 1136.22 194.325C1145.37 202.575 1151.3 214.35 1154 229.65L1082 252.6C1086.8 258.15 1093.32 260.925 1101.57 260.925ZM1099.1 206.475C1092.05 206.475 1086.42 208.875 1082.22 213.675C1078.02 218.475 1075.92 224.925 1075.92 233.025V235.05L1119.12 220.425C1115.97 211.125 1109.3 206.475 1099.1 206.475Z" fill="#F7F7F7"/>
</g>
<g filter="url(#filter3_d)">
<path d="M496 328.2C497.387 328.2 498.733 327.72 500.04 326.76L501.76 329.52C500.88 330.107 499.92 330.573 498.88 330.92C497.867 331.24 496.88 331.4 495.92 331.4C494.08 331.4 492.467 331.027 491.08 330.28C489.72 329.507 488.667 328.453 487.92 327.12C487.173 325.787 486.8 324.28 486.8 322.6C486.8 320.973 487.2 319.493 488 318.16C488.827 316.8 489.947 315.733 491.36 314.96C492.773 314.16 494.32 313.76 496 313.76C498.16 313.76 499.96 314.4 501.4 315.68C502.867 316.933 503.867 318.693 504.4 320.96L491.28 325.56C491.76 326.387 492.4 327.04 493.2 327.52C494.027 327.973 494.96 328.2 496 328.2ZM495.72 316.72C494.2 316.72 492.947 317.253 491.96 318.32C490.973 319.387 490.48 320.747 490.48 322.4C490.48 322.8 490.493 323.107 490.52 323.32L500.16 319.76C499.76 318.853 499.187 318.12 498.44 317.56C497.72 317 496.813 316.72 495.72 316.72ZM519.301 313.8C520.848 313.8 522.128 314.267 523.141 315.2C524.155 316.107 524.675 317.293 524.701 318.76V331H520.941V320.04C520.888 319.107 520.608 318.373 520.101 317.84C519.595 317.307 518.835 317.027 517.821 317C516.355 317 515.141 317.587 514.181 318.76C513.221 319.933 512.741 321.427 512.741 323.24V331H509.021V314.44H512.381L512.621 317.64C513.208 316.44 514.088 315.507 515.261 314.84C516.435 314.147 517.781 313.8 519.301 313.8ZM541.411 313.8C542.957 313.8 544.237 314.267 545.251 315.2C546.264 316.107 546.784 317.293 546.811 318.76V331H543.051V320.04C542.997 319.107 542.717 318.373 542.211 317.84C541.704 317.307 540.944 317.027 539.931 317C538.971 317 538.104 317.267 537.331 317.8C536.557 318.333 535.944 319.08 535.491 320.04C535.064 321 534.851 322.067 534.851 323.24V331H531.131V300H534.771V317.44C535.384 316.347 536.264 315.467 537.411 314.8C538.584 314.133 539.917 313.8 541.411 313.8ZM570.24 314.44V331H566.52V328.28C565.933 329.053 565.08 329.773 563.96 330.44C562.84 331.08 561.573 331.4 560.16 331.4C558.587 331.4 557.16 331.067 555.88 330.4C554.627 329.707 553.627 328.707 552.88 327.4C552.16 326.093 551.8 324.533 551.8 322.72C551.8 320.907 552.173 319.333 552.92 318C553.693 316.64 554.72 315.6 556 314.88C557.307 314.133 558.747 313.76 560.32 313.76C561.733 313.76 562.96 314.067 564 314.68C565.04 315.293 565.88 316.093 566.52 317.08L566.8 314.44H570.24ZM561.16 328.32C562.52 328.32 563.68 327.947 564.64 327.2C565.627 326.427 566.253 325.387 566.52 324.08V320.8C566.2 319.627 565.533 318.68 564.52 317.96C563.507 317.213 562.347 316.84 561.04 316.84C560.053 316.84 559.133 317.08 558.28 317.56C557.453 318.04 556.787 318.72 556.28 319.6C555.8 320.453 555.56 321.427 555.56 322.52C555.56 323.587 555.813 324.56 556.32 325.44C556.827 326.32 557.507 327.027 558.36 327.56C559.213 328.067 560.147 328.32 561.16 328.32ZM586.997 313.8C588.543 313.8 589.823 314.267 590.837 315.2C591.85 316.107 592.37 317.293 592.397 318.76V331H588.637V320.04C588.583 319.107 588.303 318.373 587.797 317.84C587.29 317.307 586.53 317.027 585.517 317C584.05 317 582.837 317.587 581.877 318.76C580.917 319.933 580.437 321.427 580.437 323.24V331H576.717V314.44H580.077L580.317 317.64C580.903 316.44 581.783 315.507 582.957 314.84C584.13 314.147 585.477 313.8 586.997 313.8ZM612.266 329.44C611.519 330.053 610.626 330.533 609.586 330.88C608.573 331.227 607.533 331.4 606.466 331.4C604.679 331.4 603.093 331.04 601.706 330.32C600.346 329.6 599.279 328.587 598.506 327.28C597.759 325.947 597.386 324.413 597.386 322.68C597.386 320.973 597.786 319.467 598.586 318.16C599.386 316.827 600.453 315.8 601.786 315.08C603.119 314.36 604.559 314 606.106 314C608.639 314 610.733 314.693 612.386 316.08L610.506 318.52C609.973 318.12 609.359 317.787 608.666 317.52C607.973 317.227 607.226 317.08 606.426 317.08C605.439 317.08 604.533 317.333 603.706 317.84C602.906 318.32 602.266 318.987 601.786 319.84C601.333 320.693 601.106 321.64 601.106 322.68C601.106 323.72 601.346 324.667 601.826 325.52C602.333 326.373 603.013 327.053 603.866 327.56C604.719 328.067 605.693 328.32 606.786 328.32C608.146 328.32 609.333 327.92 610.346 327.12L612.266 329.44ZM624.828 328.2C626.215 328.2 627.561 327.72 628.868 326.76L630.588 329.52C629.708 330.107 628.748 330.573 627.708 330.92C626.695 331.24 625.708 331.4 624.748 331.4C622.908 331.4 621.295 331.027 619.908 330.28C618.548 329.507 617.495 328.453 616.748 327.12C616.001 325.787 615.628 324.28 615.628 322.6C615.628 320.973 616.028 319.493 616.828 318.16C617.655 316.8 618.775 315.733 620.188 314.96C621.601 314.16 623.148 313.76 624.828 313.76C626.988 313.76 628.788 314.4 630.228 315.68C631.695 316.933 632.695 318.693 633.228 320.96L620.108 325.56C620.588 326.387 621.228 327.04 622.028 327.52C622.855 327.973 623.788 328.2 624.828 328.2ZM624.548 316.72C623.028 316.72 621.775 317.253 620.788 318.32C619.801 319.387 619.308 320.747 619.308 322.4C619.308 322.8 619.321 323.107 619.348 323.32L628.988 319.76C628.588 318.853 628.015 318.12 627.268 317.56C626.548 317 625.641 316.72 624.548 316.72ZM658.266 328.2C659.652 328.2 660.999 327.72 662.306 326.76L664.026 329.52C663.146 330.107 662.186 330.573 661.146 330.92C660.132 331.24 659.146 331.4 658.186 331.4C656.346 331.4 654.732 331.027 653.346 330.28C651.986 329.507 650.932 328.453 650.186 327.12C649.439 325.787 649.066 324.28 649.066 322.6C649.066 320.973 649.466 319.493 650.266 318.16C651.092 316.8 652.212 315.733 653.626 314.96C655.039 314.16 656.586 313.76 658.266 313.76C660.426 313.76 662.226 314.4 663.666 315.68C665.132 316.933 666.132 318.693 666.666 320.96L653.546 325.56C654.026 326.387 654.666 327.04 655.466 327.52C656.292 327.973 657.226 328.2 658.266 328.2ZM657.986 316.72C656.466 316.72 655.212 317.253 654.226 318.32C653.239 319.387 652.746 320.747 652.746 322.4C652.746 322.8 652.759 323.107 652.786 323.32L662.426 319.76C662.026 318.853 661.452 318.12 660.706 317.56C659.986 317 659.079 316.72 657.986 316.72ZM688.567 300V331H684.807V328.4C684.007 329.333 683.02 330.067 681.847 330.6C680.7 331.133 679.434 331.4 678.047 331.4C676.5 331.4 675.1 331.027 673.847 330.28C672.594 329.533 671.607 328.493 670.887 327.16C670.194 325.8 669.847 324.24 669.847 322.48C669.847 320.693 670.22 319.147 670.967 317.84C671.714 316.507 672.74 315.493 674.047 314.8C675.354 314.107 676.834 313.76 678.487 313.76C679.74 313.76 680.94 314.027 682.087 314.56C683.26 315.067 684.18 315.773 684.847 316.68V300H688.567ZM679.207 328.2C680.647 328.2 681.86 327.813 682.847 327.04C683.86 326.267 684.514 325.227 684.807 323.92V320.8C684.487 319.6 683.807 318.627 682.767 317.88C681.727 317.107 680.54 316.72 679.207 316.72C678.194 316.72 677.26 316.973 676.407 317.48C675.554 317.96 674.874 318.64 674.367 319.52C673.86 320.373 673.607 321.347 673.607 322.44C673.607 323.507 673.86 324.48 674.367 325.36C674.874 326.24 675.554 326.933 676.407 327.44C677.26 327.947 678.194 328.2 679.207 328.2ZM710.398 314.44V331H707.038L706.798 327.84C706.238 328.96 705.371 329.88 704.198 330.6C703.024 331.293 701.718 331.64 700.278 331.64C698.758 331.64 697.504 331.187 696.518 330.28C695.558 329.347 695.051 328.147 694.998 326.68V314.44H698.718V325.36C698.771 326.293 699.038 327.04 699.518 327.6C700.024 328.133 700.771 328.413 701.758 328.44C702.664 328.44 703.491 328.173 704.238 327.64C704.984 327.08 705.571 326.32 705.998 325.36C706.451 324.4 706.678 323.333 706.678 322.16V314.44H710.398ZM730.313 329.44C729.566 330.053 728.673 330.533 727.633 330.88C726.619 331.227 725.579 331.4 724.513 331.4C722.726 331.4 721.139 331.04 719.753 330.32C718.393 329.6 717.326 328.587 716.553 327.28C715.806 325.947 715.433 324.413 715.433 322.68C715.433 320.973 715.833 319.467 716.633 318.16C717.433 316.827 718.499 315.8 719.833 315.08C721.166 314.36 722.606 314 724.153 314C726.686 314 728.779 314.693 730.433 316.08L728.553 318.52C728.019 318.12 727.406 317.787 726.713 317.52C726.019 317.227 725.273 317.08 724.473 317.08C723.486 317.08 722.579 317.333 721.753 317.84C720.953 318.32 720.313 318.987 719.833 319.84C719.379 320.693 719.153 321.64 719.153 322.68C719.153 323.72 719.393 324.667 719.873 325.52C720.379 326.373 721.059 327.053 721.913 327.56C722.766 328.067 723.739 328.32 724.833 328.32C726.193 328.32 727.379 327.92 728.393 327.12L730.313 329.44ZM752.115 314.44V331H748.395V328.28C747.808 329.053 746.955 329.773 745.835 330.44C744.715 331.08 743.448 331.4 742.035 331.4C740.462 331.4 739.035 331.067 737.755 330.4C736.502 329.707 735.502 328.707 734.755 327.4C734.035 326.093 733.675 324.533 733.675 322.72C733.675 320.907 734.048 319.333 734.795 318C735.568 316.64 736.595 315.6 737.875 314.88C739.182 314.133 740.622 313.76 742.195 313.76C743.608 313.76 744.835 314.067 745.875 314.68C746.915 315.293 747.755 316.093 748.395 317.08L748.675 314.44H752.115ZM743.035 328.32C744.395 328.32 745.555 327.947 746.515 327.2C747.502 326.427 748.128 325.387 748.395 324.08V320.8C748.075 319.627 747.408 318.68 746.395 317.96C745.382 317.213 744.222 316.84 742.915 316.84C741.928 316.84 741.008 317.08 740.155 317.56C739.328 318.04 738.662 318.72 738.155 319.6C737.675 320.453 737.435 321.427 737.435 322.52C737.435 323.587 737.688 324.56 738.195 325.44C738.702 326.32 739.382 327.027 740.235 327.56C741.088 328.067 742.022 328.32 743.035 328.32ZM763.952 307.16V314.48H768.472V317.44H763.952V331H760.192V317.44H757.152V314.48H760.192V307.16H763.952ZM776.726 314.44V331H773.006V314.44H776.726ZM772.726 308.48C772.726 307.893 772.952 307.4 773.406 307C773.859 306.6 774.379 306.4 774.966 306.4C775.552 306.4 776.059 306.6 776.486 307C776.939 307.4 777.166 307.893 777.166 308.48C777.166 309.067 776.939 309.56 776.486 309.96C776.059 310.36 775.552 310.56 774.966 310.56C774.379 310.56 773.859 310.36 773.406 309.96C772.952 309.56 772.726 309.067 772.726 308.48ZM781.761 322.56C781.761 320.933 782.148 319.453 782.921 318.12C783.721 316.76 784.814 315.693 786.201 314.92C787.614 314.147 789.201 313.76 790.961 313.76C792.721 313.76 794.281 314.147 795.641 314.92C797.028 315.693 798.094 316.747 798.841 318.08C799.614 319.413 800.001 320.907 800.001 322.56C800.001 324.213 799.614 325.72 798.841 327.08C798.094 328.413 797.028 329.467 795.641 330.24C794.254 331.013 792.668 331.4 790.881 331.4C789.148 331.4 787.588 331.04 786.201 330.32C784.814 329.573 783.721 328.533 782.921 327.2C782.148 325.867 781.761 324.32 781.761 322.56ZM785.521 322.6C785.521 323.64 785.748 324.6 786.201 325.48C786.681 326.36 787.321 327.053 788.121 327.56C788.948 328.067 789.854 328.32 790.841 328.32C792.388 328.32 793.668 327.773 794.681 326.68C795.694 325.587 796.201 324.227 796.201 322.6C796.201 320.973 795.694 319.613 794.681 318.52C793.668 317.4 792.388 316.84 790.841 316.84C789.828 316.84 788.921 317.107 788.121 317.64C787.321 318.147 786.681 318.84 786.201 319.72C785.748 320.6 785.521 321.56 785.521 322.6ZM815.278 313.8C816.824 313.8 818.104 314.267 819.118 315.2C820.131 316.107 820.651 317.293 820.678 318.76V331H816.918V320.04C816.864 319.107 816.584 318.373 816.078 317.84C815.571 317.307 814.811 317.027 813.798 317C812.331 317 811.118 317.587 810.158 318.76C809.198 319.933 808.718 321.427 808.718 323.24V331H804.998V314.44H808.358L808.598 317.64C809.184 316.44 810.064 315.507 811.238 314.84C812.411 314.147 813.758 313.8 815.278 313.8ZM828.187 333.08L827.027 335.88H823.987L825.027 333.08C826.227 329.853 826.921 327.987 827.107 327.48H830.507L828.187 333.08ZM851.608 314.44V331H847.888V314.44H851.608ZM847.608 308.48C847.608 307.893 847.835 307.4 848.288 307C848.742 306.6 849.262 306.4 849.848 306.4C850.435 306.4 850.942 306.6 851.368 307C851.822 307.4 852.048 307.893 852.048 308.48C852.048 309.067 851.822 309.56 851.368 309.96C850.942 310.36 850.435 310.56 849.848 310.56C849.262 310.56 848.742 310.36 848.288 309.96C847.835 309.56 847.608 309.067 847.608 308.48ZM868.364 313.8C869.91 313.8 871.19 314.267 872.204 315.2C873.217 316.107 873.737 317.293 873.764 318.76V331H870.004V320.04C869.95 319.107 869.67 318.373 869.164 317.84C868.657 317.307 867.897 317.027 866.884 317C865.417 317 864.204 317.587 863.244 318.76C862.284 319.933 861.804 321.427 861.804 323.24V331H858.084V314.44H861.444L861.684 317.64C862.27 316.44 863.15 315.507 864.324 314.84C865.497 314.147 866.844 313.8 868.364 313.8ZM895.367 314.44L886.527 331.48H886.327L877.127 314.44H881.567L886.567 325L891.207 314.44H895.367ZM897.542 322.56C897.542 320.933 897.929 319.453 898.702 318.12C899.502 316.76 900.596 315.693 901.982 314.92C903.396 314.147 904.982 313.76 906.742 313.76C908.502 313.76 910.062 314.147 911.422 314.92C912.809 315.693 913.876 316.747 914.622 318.08C915.396 319.413 915.782 320.907 915.782 322.56C915.782 324.213 915.396 325.72 914.622 327.08C913.876 328.413 912.809 329.467 911.422 330.24C910.036 331.013 908.449 331.4 906.662 331.4C904.929 331.4 903.369 331.04 901.982 330.32C900.596 329.573 899.502 328.533 898.702 327.2C897.929 325.867 897.542 324.32 897.542 322.56ZM901.302 322.6C901.302 323.64 901.529 324.6 901.982 325.48C902.462 326.36 903.102 327.053 903.902 327.56C904.729 328.067 905.636 328.32 906.622 328.32C908.169 328.32 909.449 327.773 910.462 326.68C911.476 325.587 911.982 324.227 911.982 322.6C911.982 320.973 911.476 319.613 910.462 318.52C909.449 317.4 908.169 316.84 906.622 316.84C905.609 316.84 904.702 317.107 903.902 317.64C903.102 318.147 902.462 318.84 901.982 319.72C901.529 320.6 901.302 321.56 901.302 322.6ZM924.499 300V331H920.779V300H924.499ZM946.734 314.44L937.894 331.48H937.694L928.494 314.44H932.934L937.934 325L942.574 314.44H946.734ZM958.109 328.2C959.496 328.2 960.843 327.72 962.149 326.76L963.869 329.52C962.989 330.107 962.029 330.573 960.989 330.92C959.976 331.24 958.989 331.4 958.029 331.4C956.189 331.4 954.576 331.027 953.189 330.28C951.829 329.507 950.776 328.453 950.029 327.12C949.283 325.787 948.909 324.28 948.909 322.6C948.909 320.973 949.309 319.493 950.109 318.16C950.936 316.8 952.056 315.733 953.469 314.96C954.883 314.16 956.429 313.76 958.109 313.76C960.269 313.76 962.069 314.4 963.509 315.68C964.976 316.933 965.976 318.693 966.509 320.96L953.389 325.56C953.869 326.387 954.509 327.04 955.309 327.52C956.136 327.973 957.069 328.2 958.109 328.2ZM957.829 316.72C956.309 316.72 955.056 317.253 954.069 318.32C953.083 319.387 952.589 320.747 952.589 322.4C952.589 322.8 952.603 323.107 952.629 323.32L962.269 319.76C961.869 318.853 961.296 318.12 960.549 317.56C959.829 317 958.923 316.72 957.829 316.72ZM994.267 313.76C995.814 313.76 997.214 314.133 998.467 314.88C999.72 315.627 1000.71 316.68 1001.43 318.04C1002.15 319.373 1002.51 320.92 1002.51 322.68C1002.51 324.413 1002.12 325.947 1001.35 327.28C1000.57 328.587 999.507 329.6 998.147 330.32C996.787 331.04 995.267 331.4 993.587 331.4C992.387 331.4 991.24 331.147 990.147 330.64C989.054 330.107 988.174 329.4 987.507 328.52V338.96H983.787V314.16H987.027L987.347 316.96C988.2 316 989.214 315.227 990.387 314.64C991.587 314.053 992.88 313.76 994.267 313.76ZM992.867 328.4C993.907 328.4 994.867 328.16 995.747 327.68C996.654 327.173 997.374 326.493 997.907 325.64C998.44 324.76 998.707 323.787 998.707 322.72C998.707 321.627 998.454 320.64 997.947 319.76C997.467 318.88 996.8 318.187 995.947 317.68C995.094 317.173 994.147 316.92 993.107 316.92C991.694 316.92 990.48 317.32 989.467 318.12C988.48 318.893 987.827 319.947 987.507 321.28V324.04C987.72 325.32 988.32 326.373 989.307 327.2C990.32 328 991.507 328.4 992.867 328.4ZM1022.9 314.44V331H1019.54L1019.3 327.84C1018.74 328.96 1017.87 329.88 1016.7 330.6C1015.52 331.293 1014.22 331.64 1012.78 331.64C1011.26 331.64 1010 331.187 1009.02 330.28C1008.06 329.347 1007.55 328.147 1007.5 326.68V314.44H1011.22V325.36C1011.27 326.293 1011.54 327.04 1012.02 327.6C1012.52 328.133 1013.27 328.413 1014.26 328.44C1015.16 328.44 1015.99 328.173 1016.74 327.64C1017.48 327.08 1018.07 326.32 1018.5 325.36C1018.95 324.4 1019.18 323.333 1019.18 322.16V314.44H1022.9ZM1039.85 313.76C1041.4 313.76 1042.8 314.133 1044.05 314.88C1045.31 315.627 1046.29 316.68 1047.01 318.04C1047.73 319.373 1048.09 320.92 1048.09 322.68C1048.09 324.413 1047.71 325.947 1046.93 327.28C1046.16 328.587 1045.09 329.6 1043.73 330.32C1042.37 331.04 1040.85 331.4 1039.17 331.4C1037.97 331.4 1036.83 331.147 1035.73 330.64C1034.64 330.107 1033.76 329.4 1033.09 328.52V338.96H1029.37V314.16H1032.61L1032.93 316.96C1033.79 316 1034.8 315.227 1035.97 314.64C1037.17 314.053 1038.47 313.76 1039.85 313.76ZM1038.45 328.4C1039.49 328.4 1040.45 328.16 1041.33 327.68C1042.24 327.173 1042.96 326.493 1043.49 325.64C1044.03 324.76 1044.29 323.787 1044.29 322.72C1044.29 321.627 1044.04 320.64 1043.53 319.76C1043.05 318.88 1042.39 318.187 1041.53 317.68C1040.68 317.173 1039.73 316.92 1038.69 316.92C1037.28 316.92 1036.07 317.32 1035.05 318.12C1034.07 318.893 1033.41 319.947 1033.09 321.28V324.04C1033.31 325.32 1033.91 326.373 1034.89 327.2C1035.91 328 1037.09 328.4 1038.45 328.4ZM1056.8 314.44V331H1053.08V314.44H1056.8ZM1052.8 308.48C1052.8 307.893 1053.03 307.4 1053.48 307C1053.94 306.6 1054.46 306.4 1055.04 306.4C1055.63 306.4 1056.14 306.6 1056.56 307C1057.02 307.4 1057.24 307.893 1057.24 308.48C1057.24 309.067 1057.02 309.56 1056.56 309.96C1056.14 310.36 1055.63 310.56 1055.04 310.56C1054.46 310.56 1053.94 310.36 1053.48 309.96C1053.03 309.56 1052.8 309.067 1052.8 308.48ZM1067 300V331H1063.28V300H1067ZM1078.15 331.36C1076.93 331.36 1075.75 331.147 1074.63 330.72C1073.54 330.293 1072.65 329.667 1071.95 328.84L1073.55 326.68C1074.22 327.32 1074.91 327.813 1075.63 328.16C1076.38 328.507 1077.11 328.68 1077.83 328.68C1078.71 328.68 1079.43 328.507 1079.99 328.16C1080.55 327.813 1080.83 327.28 1080.83 326.56C1080.83 326 1080.66 325.547 1080.31 325.2C1079.97 324.853 1079.57 324.6 1079.11 324.44C1078.69 324.28 1077.95 324.04 1076.91 323.72C1074.09 322.813 1072.67 321.2 1072.67 318.88C1072.67 317.493 1073.18 316.307 1074.19 315.32C1075.23 314.333 1076.67 313.84 1078.51 313.84C1079.69 313.84 1080.73 313.987 1081.63 314.28C1082.54 314.573 1083.38 315.04 1084.15 315.68L1082.67 317.96C1082.25 317.507 1081.7 317.147 1081.03 316.88C1080.39 316.613 1079.78 316.467 1079.19 316.44C1078.45 316.44 1077.81 316.627 1077.27 317C1076.74 317.347 1076.47 317.827 1076.47 318.44C1076.47 318.947 1076.65 319.373 1076.99 319.72C1077.34 320.04 1077.7 320.28 1078.07 320.44C1078.45 320.573 1079.18 320.813 1080.27 321.16C1081.63 321.613 1082.69 322.2 1083.43 322.92C1084.21 323.64 1084.59 324.613 1084.59 325.84C1084.59 327.44 1084.03 328.76 1082.91 329.8C1081.79 330.84 1080.21 331.36 1078.15 331.36Z" fill="#F7F7F7"/>
</g>
<defs>
<filter id="filter0_i" x="0" y="116" width="466" height="227" filterUnits="userSpaceOnUse" color-interpolation-filters="sRGB">
<feFlood flood-opacity="0" result="BackgroundImageFix"/>
<feBlend mode="normal" in="SourceGraphic" in2="BackgroundImageFix" result="shape"/>
<feColorMatrix in="SourceAlpha" type="matrix" values="0 0 0 0 0 0 0 0 0 0 0 0 0 0 0 0 0 0 127 0" result="hardAlpha"/>
<feOffset dy="4"/>
<feGaussianBlur stdDeviation="2"/>
<feComposite in2="hardAlpha" operator="arithmetic" k2="-1" k3="1"/>
<feColorMatrix type="matrix" values="0 0 0 0 0 0 0 0 0 0 0 0 0 0 0 0 0 0 0.25 0"/>
<feBlend mode="normal" in2="shape" result="effect1_innerShadow"/>
</filter>
<filter id="filter1_d" x="150.664" y="0.528687" width="987.759" height="363.253" filterUnits="userSpaceOnUse" color-interpolation-filters="sRGB">
<feFlood flood-opacity="0" result="BackgroundImageFix"/>
<feColorMatrix in="SourceAlpha" type="matrix" values="0 0 0 0 0 0 0 0 0 0 0 0 0 0 0 0 0 0 127 0"/>
<feOffset dy="4"/>
<feGaussianBlur stdDeviation="2"/>
<feColorMatrix type="matrix" values="0 0 0 0 0 0 0 0 0 0 0 0 0 0 0 0 0 0 0.25 0"/>
<feBlend mode="normal" in2="BackgroundImageFix" result="effect1_dropShadow"/>
<feBlend mode="normal" in="SourceGraphic" in2="effect1_dropShadow" result="shape"/>
</filter>
<filter id="filter2_d" x="483.375" y="107.475" width="674.622" height="188.225" filterUnits="userSpaceOnUse" color-interpolation-filters="sRGB">
<feFlood flood-opacity="0" result="BackgroundImageFix"/>
<feColorMatrix in="SourceAlpha" type="matrix" values="0 0 0 0 0 0 0 0 0 0 0 0 0 0 0 0 0 0 127 0"/>
<feOffset dy="4"/>
<feGaussianBlur stdDeviation="2"/>
<feColorMatrix type="matrix" values="0 0 0 0 0 0 0 0 0 0 0 0 0 0 0 0 0 0 0.25 0"/>
<feBlend mode="normal" in2="BackgroundImageFix" result="effect1_dropShadow"/>
<feBlend mode="normal" in="SourceGraphic" in2="effect1_dropShadow" result="shape"/>
</filter>
<filter id="filter3_d" x="482.8" y="300" width="605.794" height="46.96" filterUnits="userSpaceOnUse" color-interpolation-filters="sRGB">
<feFlood flood-opacity="0" result="BackgroundImageFix"/>
<feColorMatrix in="SourceAlpha" type="matrix" values="0 0 0 0 0 0 0 0 0 0 0 0 0 0 0 0 0 0 127 0"/>
<feOffset dy="4"/>
<feGaussianBlur stdDeviation="2"/>
<feColorMatrix type="matrix" values="0 0 0 0 0 0 0 0 0 0 0 0 0 0 0 0 0 0 0.25 0"/>
<feBlend mode="normal" in2="BackgroundImageFix" result="effect1_dropShadow"/>
<feBlend mode="normal" in="SourceGraphic" in2="effect1_dropShadow" result="shape"/>
</filter>
<linearGradient id="paint0_linear" x1="453.5" y1="151.5" x2="134.564" y2="407.136" gradientUnits="userSpaceOnUse">
<stop offset="0.0558805" stop-color="#FAFCFD"/>
<stop offset="0.481253" stop-color="#A8E5FF"/>
<stop offset="1" stop-color="#39A4D1"/>
</linearGradient>
<linearGradient id="paint1_linear" x1="453.5" y1="151.5" x2="134.564" y2="407.136" gradientUnits="userSpaceOnUse">
<stop offset="0.0558805" stop-color="#FAFCFD"/>
<stop offset="0.481253" stop-color="#A8E5FF"/>
<stop offset="1" stop-color="#39A4D1"/>
</linearGradient>
</defs>
</svg>
