<svg width="490" height="490" viewBox="0 0 490 490" fill="none" xmlns="http://www.w3.org/2000/svg">
<g clip-path="url(#clip0)">
<path d="M230.087 207.317C239.687 216.917 253.087 214.517 259.187 208.317L345.487 122.017C353.787 113.717 353.787 101.217 345.487 92.917L259.187 6.61701C250.487 -2.08299 237.687 -1.98299 230.087 5.61701L143.787 91.917C135.487 100.217 135.487 112.717 143.787 121.017L230.087 207.317ZM244.687 49.217L301.887 107.517L244.687 164.717L187.487 107.517L244.687 49.217Z" fill="#F7F7F7"/>
<path d="M259.287 282.317C250.587 273.617 237.787 273.717 230.187 281.317L143.887 367.617C135.587 375.917 135.587 388.417 143.887 396.717L230.187 483.017C239.787 492.617 253.187 490.217 259.287 484.017L345.587 397.717C353.887 389.417 353.887 376.917 345.587 368.617L259.287 282.317ZM244.687 440.517L187.487 383.317L244.687 325.017L301.887 383.317L244.687 440.517Z" fill="#F7F7F7"/>
<path d="M480.187 230.217L393.887 143.817C385.587 135.517 373.087 135.517 364.787 143.817L278.487 230.117C268.887 239.717 271.287 253.117 277.487 259.217L363.787 345.517C372.087 353.817 384.587 353.817 392.887 345.517L479.187 259.217C487.887 250.717 487.787 237.817 480.187 230.217ZM378.287 302.017L321.087 244.817L378.287 187.617L436.587 244.817L378.287 302.017Z" fill="#F7F7F7"/>
<path d="M211.787 230.217L125.487 143.817C117.187 135.517 104.687 135.517 96.3871 143.817L10.0871 230.117C0.487054 239.717 2.88705 253.117 9.08705 259.217L95.3871 345.517C103.687 353.817 116.187 353.817 124.487 345.517L210.787 259.217C219.487 250.717 219.387 237.817 211.787 230.217ZM109.887 302.017L52.6871 244.817L109.887 187.617L168.187 244.817L109.887 302.017Z" fill="#F7F7F7"/>
</g>
<defs>
<clipPath id="clip0">
<rect width="489.454" height="489.454" fill="white"/>
</clipPath>
</defs>
</svg>
