<svg width="750" height="391" viewBox="0 0 750 391" fill="none" xmlns="http://www.w3.org/2000/svg">
<ellipse cx="386" cy="157" rx="364" ry="157" fill="#4FD13A"/>
<path d="M742.036 141.978C782.374 299.933 273.784 401.465 152.051 388.726C255.099 386.04 741.567 123.975 742.036 141.978Z" fill="#4FD13A"/>
<ellipse cx="349" cy="164.5" rx="349" ry="133.5" fill="#F7F7F7"/>
<path d="M68.6562 183.352C67.9271 182.622 67.3802 181.757 67.0156 180.754C66.7422 179.751 66.013 178.931 64.8281 178.293C64.6458 176.926 64.3724 175.376 64.0078 173.645C63.7344 171.822 63.4154 169.999 63.0508 168.176C62.7773 166.262 62.5495 164.393 62.3672 162.57C62.276 160.656 62.3672 158.924 62.6406 157.375C62.8229 156.555 63.0964 155.78 63.4609 155.051C63.9167 154.322 64.3268 153.638 64.6914 153C65.1471 152.271 65.4661 151.542 65.6484 150.812C65.9219 150.083 65.9674 149.354 65.7852 148.625C66.332 148.534 66.651 148.26 66.7422 147.805C66.9245 147.258 67.3802 147.076 68.1094 147.258C68.7474 145.253 69.431 143.384 70.1602 141.652C70.8893 139.921 71.6641 138.234 72.4844 136.594C73.3047 134.953 74.125 133.312 74.9453 131.672C75.8568 129.94 76.6771 128.026 77.4062 125.93C75.8568 124.471 74.7174 122.922 73.9883 121.281C73.3503 119.549 72.849 117.818 72.4844 116.086C72.1198 114.354 71.8464 112.622 71.6641 110.891C71.4818 109.068 71.1172 107.245 70.5703 105.422C71.6641 103.781 72.9857 102.46 74.5352 101.457C76.0846 100.363 77.7708 99.4974 79.5938 98.8594C81.5078 98.1302 83.5586 97.5833 85.7461 97.2188C87.9336 96.763 90.2578 96.2617 92.7188 95.7148C97.0938 94.3477 101.013 93.2995 104.477 92.5703C107.94 91.75 111.312 91.112 114.594 90.6562C117.875 90.1094 121.293 89.6536 124.848 89.2891C128.402 88.8333 132.504 88.1953 137.152 87.375C137.243 87.6484 137.38 87.7852 137.562 87.7852C137.836 87.7852 138.155 87.7852 138.52 87.7852C138.793 88.4232 139.294 88.7422 140.023 88.7422C140.023 88.4688 139.978 88.2409 139.887 88.0586C139.887 87.7852 139.887 87.5573 139.887 87.375C140.069 87.375 140.297 87.4206 140.57 87.5117C140.935 87.6029 141.208 87.694 141.391 87.7852C141.664 87.8763 141.892 87.8763 142.074 87.7852C142.257 87.6029 142.302 87.2839 142.211 86.8281C143.305 88.7422 144.717 90.3372 146.449 91.6133C148.181 92.7982 150.095 93.8464 152.191 94.7578C152.283 95.5781 152.283 96.1706 152.191 96.5352C152.191 96.8997 152.146 97.2643 152.055 97.6289C151.964 97.9023 151.918 98.2669 151.918 98.7227C151.918 99.0872 152.009 99.6341 152.191 100.363C150.733 102.824 149.047 104.738 147.133 106.105C145.31 107.473 143.35 108.521 141.254 109.25C139.158 109.979 136.924 110.526 134.555 110.891C132.276 111.255 129.906 111.665 127.445 112.121C125.076 112.486 122.66 113.033 120.199 113.762C117.738 114.491 115.323 115.585 112.953 117.043C112.224 116.77 111.54 116.678 110.902 116.77C110.355 116.77 109.763 116.861 109.125 117.043C108.487 117.225 107.758 117.408 106.938 117.59C106.208 117.772 105.297 117.772 104.203 117.59C103.474 118.228 102.608 118.684 101.605 118.957C100.694 119.23 99.737 119.504 98.7344 119.777C99.1901 120.78 99.3724 121.783 99.2812 122.785C99.2812 123.788 99.418 124.654 99.6914 125.383C103.52 125.747 107.758 125.747 112.406 125.383C117.055 124.927 121.612 124.608 126.078 124.426C126.169 124.882 126.124 125.201 125.941 125.383C125.759 125.565 125.668 125.884 125.668 126.34C126.488 126.887 127.263 127.57 127.992 128.391C128.721 129.211 129.451 130.031 130.18 130.852C131 131.581 131.82 132.219 132.641 132.766C133.461 133.221 134.418 133.404 135.512 133.312C135.967 134.224 136.286 135.181 136.469 136.184C136.651 137.186 136.514 138.234 136.059 139.328C134.236 140.513 132.458 141.743 130.727 143.02C128.995 144.204 127.172 145.298 125.258 146.301C123.435 147.303 121.43 148.124 119.242 148.762C117.055 149.4 114.685 149.673 112.133 149.582C111.677 149.582 111.267 149.582 110.902 149.582C110.629 149.582 110.264 149.4 109.809 149.035C108.897 149.491 107.667 149.673 106.117 149.582C104.659 149.4 103.428 149.536 102.426 149.992C101.15 149.536 99.6458 149.309 97.9141 149.309C96.2734 149.309 94.8151 149.081 93.5391 148.625C91.8984 150.995 90.349 153.501 88.8906 156.145C87.4323 158.697 86.1562 161.431 85.0625 164.348C88.7995 164.895 91.8984 165.122 94.3594 165.031C96.8203 164.94 99.1445 164.758 101.332 164.484C103.52 164.211 105.753 163.938 108.031 163.664C110.401 163.391 113.272 163.299 116.645 163.391C118.923 162.297 121.521 161.568 124.438 161.203C127.445 160.747 130.225 160.109 132.777 159.289C133.689 159.562 134.464 160.109 135.102 160.93C135.74 161.659 136.332 162.434 136.879 163.254C137.517 163.983 138.155 164.621 138.793 165.168C139.431 165.715 140.251 165.897 141.254 165.715C141.71 166.171 141.983 166.717 142.074 167.355C142.257 167.993 142.393 168.586 142.484 169.133C142.667 169.68 142.895 170.135 143.168 170.5C143.441 170.773 143.943 170.865 144.672 170.773C142.94 174.328 140.98 177.062 138.793 178.977C136.697 180.891 134.281 182.395 131.547 183.488C128.904 184.491 125.896 185.266 122.523 185.812C119.242 186.268 115.551 186.861 111.449 187.59C110.447 187.772 109.581 187.772 108.852 187.59C108.214 187.316 107.53 187.18 106.801 187.18C104.249 187.635 101.195 188.091 97.6406 188.547C94.1771 189.003 90.668 189.185 87.1133 189.094C83.5586 189.003 80.1406 188.547 76.8594 187.727C73.5781 186.906 70.8438 185.448 68.6562 183.352ZM176.801 163.117C175.98 163.299 175.388 163.801 175.023 164.621C174.659 165.35 174.294 166.125 173.93 166.945C173.656 167.766 173.337 168.54 172.973 169.27C172.699 169.908 172.243 170.227 171.605 170.227C171.514 170.956 171.241 171.594 170.785 172.141C170.421 172.688 170.056 173.28 169.691 173.918C169.327 174.465 169.053 175.103 168.871 175.832C168.689 176.47 168.78 177.245 169.145 178.156C168.415 178.703 167.96 179.478 167.777 180.48C167.595 181.483 167.367 182.44 167.094 183.352C166.911 184.263 166.547 185.038 166 185.676C165.453 186.314 164.451 186.587 162.992 186.496C162.719 186.861 162.673 187.089 162.855 187.18C163.038 187.271 163.174 187.59 163.266 188.137C162.263 187.954 161.488 188 160.941 188.273C160.486 188.638 159.893 188.866 159.164 188.957C157.432 188.41 155.974 187.453 154.789 186.086C153.695 184.719 152.693 183.215 151.781 181.574C150.961 179.842 150.186 178.111 149.457 176.379C148.819 174.647 148.181 173.143 147.543 171.867C147.816 170.865 147.862 169.908 147.68 168.996C147.497 167.993 147.178 167.173 146.723 166.535C151.189 157.056 156.065 146.939 161.352 136.184C166.638 125.428 171.651 114.81 176.391 104.328C178.487 105.148 180.538 106.105 182.543 107.199C184.639 108.202 186.508 109.387 188.148 110.754C189.88 112.121 191.339 113.716 192.523 115.539C193.708 117.271 194.483 119.23 194.848 121.418C194.665 121.965 194.438 122.193 194.164 122.102C193.982 121.919 193.799 121.965 193.617 122.238C193.982 122.694 194.164 123.013 194.164 123.195C194.255 123.378 194.255 123.56 194.164 123.742C194.164 123.924 194.164 124.198 194.164 124.562C194.164 124.836 194.301 125.246 194.574 125.793C194.21 125.702 193.936 125.747 193.754 125.93C193.663 126.112 193.389 126.112 192.934 125.93C193.298 126.932 193.389 127.753 193.207 128.391C193.116 129.029 192.934 129.621 192.66 130.168C192.387 130.624 192.159 131.171 191.977 131.809C191.794 132.355 191.84 133.085 192.113 133.996C191.84 133.996 191.612 134.087 191.43 134.27C191.339 134.361 191.247 134.497 191.156 134.68C191.065 134.771 190.928 134.908 190.746 135.09C190.655 135.181 190.473 135.181 190.199 135.09C190.473 137.095 190.564 139.1 190.473 141.105C190.382 143.111 190.29 145.161 190.199 147.258C190.199 149.263 190.245 151.405 190.336 153.684C190.427 155.871 190.746 158.15 191.293 160.52C194.574 158.605 197.172 156.145 199.086 153.137C201.091 150.129 202.686 146.757 203.871 143.02C205.147 139.283 206.104 135.272 206.742 130.988C207.38 126.704 208.064 122.329 208.793 117.863C209.613 117.043 210.251 116.04 210.707 114.855C211.163 113.671 211.573 112.44 211.938 111.164C212.302 109.797 212.667 108.475 213.031 107.199C213.396 105.832 213.852 104.602 214.398 103.508C215.766 103.69 216.905 104.146 217.816 104.875C218.819 105.513 219.73 106.242 220.551 107.062C221.371 107.792 222.237 108.521 223.148 109.25C224.06 109.888 225.199 110.298 226.566 110.48C227.66 112.03 228.663 113.534 229.574 114.992C230.486 116.451 231.078 118 231.352 119.641C230.896 120.37 230.531 121.19 230.258 122.102C230.076 123.013 229.848 123.924 229.574 124.836C229.301 125.747 228.936 126.613 228.48 127.434C228.025 128.163 227.387 128.801 226.566 129.348C226.293 131.717 225.928 133.905 225.473 135.91C225.108 137.824 224.698 139.738 224.242 141.652C223.878 143.566 223.559 145.572 223.285 147.668C223.012 149.673 222.921 151.906 223.012 154.367C222.283 156.464 221.508 158.697 220.688 161.066C219.867 163.436 219.229 165.578 218.773 167.492C217.315 168.677 216.176 170.09 215.355 171.73C214.535 173.371 213.669 175.012 212.758 176.652C212.393 177.017 212.165 177.108 212.074 176.926C211.983 176.743 211.664 176.607 211.117 176.516C211.208 176.88 211.208 177.154 211.117 177.336C211.026 177.518 210.889 177.701 210.707 177.883C210.616 177.974 210.525 178.156 210.434 178.43C210.434 178.703 210.525 179.068 210.707 179.523C209.431 180.07 208.292 180.845 207.289 181.848C206.286 182.85 205.193 183.762 204.008 184.582C202.914 185.402 201.547 185.949 199.906 186.223C198.357 186.496 196.306 186.177 193.754 185.266C190.017 182.531 186.69 179.387 183.773 175.832C180.948 172.277 178.624 168.039 176.801 163.117ZM273.324 163.938C273.233 165.214 272.914 166.444 272.367 167.629C271.911 168.723 271.319 169.816 270.59 170.91C269.861 171.913 269.04 172.915 268.129 173.918C267.309 174.829 266.488 175.65 265.668 176.379C265.941 177.564 265.941 178.475 265.668 179.113C265.486 179.66 265.44 180.526 265.531 181.711C264.164 185.357 262.068 187.772 259.242 188.957C256.508 190.233 253.91 190.005 251.449 188.273C250.447 187.544 249.581 186.633 248.852 185.539C248.214 184.354 247.302 183.625 246.117 183.352C246.391 181.802 246.254 180.253 245.707 178.703C245.16 177.154 244.568 176.333 243.93 176.242C243.656 174.328 243.246 172.277 242.699 170.09C242.152 167.902 241.651 165.715 241.195 163.527C240.74 161.249 240.329 159.061 239.965 156.965C239.691 154.777 239.6 152.772 239.691 150.949C239.783 150.038 239.6 149.217 239.145 148.488C238.78 147.759 238.507 146.893 238.324 145.891C237.96 143.794 237.823 141.607 237.914 139.328C238.096 136.958 238.188 134.725 238.188 132.629C238.188 130.624 238.051 128.482 237.777 126.203C237.595 123.833 237.413 121.6 237.23 119.504C237.048 117.316 236.957 115.357 236.957 113.625C236.957 111.802 237.185 110.389 237.641 109.387C238.188 108.293 238.917 107.427 239.828 106.789C240.831 106.06 241.742 105.285 242.562 104.465C244.568 104.647 246.163 105.467 247.348 106.926C248.533 108.384 248.988 109.751 248.715 111.027C250.629 112.212 252.133 113.762 253.227 115.676C254.411 117.499 255.323 119.595 255.961 121.965C256.69 124.243 257.191 126.704 257.465 129.348C257.738 131.9 257.966 134.452 258.148 137.004C258.331 139.465 258.513 141.835 258.695 144.113C258.878 146.392 259.242 148.352 259.789 149.992C263.161 145.161 265.987 140.878 268.266 137.141C270.544 133.312 272.868 129.667 275.238 126.203C277.608 122.74 280.251 119.23 283.168 115.676C286.085 112.121 289.867 108.111 294.516 103.645C295.427 103.736 296.156 103.918 296.703 104.191C297.341 104.465 297.888 104.693 298.344 104.875C298.799 105.057 299.346 105.24 299.984 105.422C300.622 105.513 301.488 105.467 302.582 105.285C302.947 106.197 303.22 106.88 303.402 107.336C303.585 107.701 303.721 108.111 303.812 108.566C303.995 108.931 304.177 109.432 304.359 110.07C304.633 110.708 305.043 111.62 305.59 112.805C305.863 113.078 305.954 113.443 305.863 113.898C305.772 114.354 305.681 114.81 305.59 115.266C305.59 115.63 305.59 115.904 305.59 116.086C305.59 116.268 305.818 116.268 306.273 116.086C306 117.362 305.499 118.547 304.77 119.641C304.132 120.643 303.858 121.874 303.949 123.332C301.853 126.066 299.529 128.892 296.977 131.809C294.516 134.725 292.009 137.733 289.457 140.832C286.996 143.931 284.626 147.212 282.348 150.676C280.069 154.048 278.109 157.603 276.469 161.34C276.013 161.34 275.648 161.477 275.375 161.75C275.193 162.023 275.01 162.342 274.828 162.707C274.646 162.98 274.418 163.254 274.145 163.527C273.962 163.801 273.689 163.938 273.324 163.938ZM371.215 146.984C371.124 148.078 371.215 149.126 371.488 150.129C371.762 151.132 372.081 152.134 372.445 153.137C372.901 154.048 373.311 155.005 373.676 156.008C374.04 157.01 374.314 158.013 374.496 159.016C374.678 160.292 374.678 161.704 374.496 163.254C374.314 164.712 373.995 166.171 373.539 167.629C373.083 168.996 372.491 170.272 371.762 171.457C371.033 172.551 370.167 173.371 369.164 173.918C367.888 175.559 366.339 176.835 364.516 177.746C362.693 178.658 361.007 179.751 359.457 181.027C358.454 181.665 357.315 182.121 356.039 182.395C354.854 182.668 353.624 182.941 352.348 183.215C351.345 183.762 350.16 184.354 348.793 184.992C347.426 185.539 346.013 186.086 344.555 186.633C343.096 187.089 341.638 187.453 340.18 187.727C338.721 187.909 337.445 187.954 336.352 187.863C333.617 188.866 330.928 189.504 328.285 189.777C325.733 190.142 322.725 189.96 319.262 189.23C315.98 189.686 312.927 189.549 310.102 188.82C307.367 188.091 304.906 186.952 302.719 185.402C300.622 183.762 298.754 181.848 297.113 179.66C295.564 177.382 294.288 175.012 293.285 172.551C292.556 167.355 292.738 162.661 293.832 158.469C294.926 154.185 296.475 150.266 298.48 146.711C300.577 143.065 302.947 139.738 305.59 136.73C308.233 133.632 310.785 130.624 313.246 127.707C313.793 127.889 314.203 127.889 314.477 127.707C314.841 127.434 315.16 127.115 315.434 126.75C315.707 126.294 315.98 125.884 316.254 125.52C316.618 125.155 317.029 124.927 317.484 124.836C318.122 123.469 319.034 122.466 320.219 121.828C321.495 121.099 322.497 120.096 323.227 118.82C324.047 118.638 324.73 118.365 325.277 118C325.824 117.635 326.326 117.225 326.781 116.77C327.328 116.314 327.875 115.904 328.422 115.539C328.969 115.083 329.607 114.764 330.336 114.582V113.078C331.977 112.349 333.161 111.529 333.891 110.617C334.711 109.615 335.668 108.43 336.762 107.062C337.582 106.971 338.22 106.926 338.676 106.926C339.223 106.926 339.997 106.835 341 106.652C341.729 105.376 342.367 104.419 342.914 103.781C343.552 103.143 344.464 102.46 345.648 101.73C346.742 102.277 347.927 102.642 349.203 102.824C350.57 103.007 351.755 103.599 352.758 104.602C352.849 105.513 353.122 106.242 353.578 106.789C354.034 107.245 354.535 107.701 355.082 108.156C355.629 108.521 356.13 108.931 356.586 109.387C357.133 109.842 357.497 110.48 357.68 111.301C358.044 111.392 358.272 111.346 358.363 111.164C358.546 110.982 358.819 110.936 359.184 111.027C359.457 112.303 359.776 113.169 360.141 113.625C360.505 113.99 360.87 114.764 361.234 115.949C360.779 116.861 360.414 117.818 360.141 118.82C359.958 119.732 359.411 120.415 358.5 120.871C358.409 121.509 358.591 121.874 359.047 121.965C359.503 121.965 359.776 122.193 359.867 122.648C359.958 123.469 359.822 124.061 359.457 124.426C361.645 127.98 363.604 131.763 365.336 135.773C367.068 139.693 369.027 143.43 371.215 146.984ZM354.125 159.973C354.49 158.97 354.945 158.15 355.492 157.512C356.13 156.874 356.495 155.917 356.586 154.641C356.13 153.911 355.857 153.365 355.766 153C355.674 152.544 355.629 151.861 355.629 150.949C353.624 148.124 351.892 145.116 350.434 141.926C348.975 138.645 347.335 135.591 345.512 132.766C345.329 133.13 345.01 133.495 344.555 133.859C344.099 134.224 343.598 134.133 343.051 133.586C342.868 134.315 342.549 134.862 342.094 135.227C341.638 135.5 341.137 135.637 340.59 135.637C340.043 135.546 339.451 135.409 338.812 135.227C338.266 134.953 337.764 134.634 337.309 134.27C334.665 136.366 332.022 138.417 329.379 140.422C326.736 142.427 324.366 144.751 322.27 147.395C321.905 147.577 321.677 147.668 321.586 147.668C321.495 147.577 321.221 147.622 320.766 147.805C320.036 149.536 319.125 151.132 318.031 152.59C317.029 153.957 316.026 155.37 315.023 156.828C314.021 158.286 313.155 159.836 312.426 161.477C311.697 163.117 311.286 165.031 311.195 167.219C312.745 168.495 314.568 169.27 316.664 169.543C318.76 169.816 320.902 169.862 323.09 169.68C325.368 169.497 327.556 169.224 329.652 168.859C331.84 168.404 333.845 168.176 335.668 168.176C339.496 167.264 342.777 166.079 345.512 164.621C348.246 163.072 351.117 161.522 354.125 159.973ZM415.648 186.496C413.096 187.316 410.316 188.137 407.309 188.957C404.301 189.777 401.293 190.188 398.285 190.188C393.728 190.188 390.128 189.048 387.484 186.77C387.029 185.767 386.618 185.083 386.254 184.719C385.98 184.354 385.707 183.99 385.434 183.625C385.251 183.169 385.115 182.577 385.023 181.848C383.93 180.572 383.064 179.113 382.426 177.473C381.788 175.741 381.332 174.009 381.059 172.277C380.876 170.454 380.831 168.632 380.922 166.809C381.104 164.986 381.423 163.254 381.879 161.613C382.061 161.249 382.152 160.884 382.152 160.52C382.243 160.155 382.335 159.745 382.426 159.289C382.79 157.831 383.155 156.418 383.52 155.051C383.975 153.684 384.568 152.499 385.297 151.496C384.932 150.676 384.932 149.764 385.297 148.762C385.661 147.759 386.072 146.848 386.527 146.027C387.803 142.564 388.852 139.647 389.672 137.277C390.583 134.816 391.495 132.401 392.406 130.031C393.956 125.93 395.414 121.874 396.781 117.863C398.148 113.853 399.379 109.523 400.473 104.875C401.202 104.419 401.749 104.1 402.113 103.918C402.66 103.736 403.116 103.599 403.48 103.508C405.121 104.328 407.035 105.148 409.223 105.969C411.41 106.698 413.233 107.062 414.691 107.062C415.421 107.518 415.876 107.883 416.059 108.156C416.241 108.339 416.423 108.521 416.605 108.703C417.608 109.888 418.474 111.118 419.203 112.395C419.932 113.579 420.16 115.174 419.887 117.18C419.34 118 418.93 118.41 418.656 118.41C418.201 120.233 417.699 121.783 417.152 123.059C416.697 124.335 416.195 125.611 415.648 126.887C415.01 128.254 414.418 129.621 413.871 130.988C413.324 132.355 412.868 134.042 412.504 136.047C412.139 136.503 411.866 136.913 411.684 137.277C411.592 137.642 411.456 138.052 411.273 138.508C411.091 138.964 410.863 139.465 410.59 140.012C410.408 140.467 410.089 140.878 409.633 141.242C409.359 143.612 408.904 145.526 408.266 146.984C407.719 148.443 407.126 149.901 406.488 151.359C405.395 154.003 404.392 156.646 403.48 159.289C402.66 161.932 402.159 164.94 401.977 168.312C402.432 168.13 402.842 168.039 403.207 168.039C403.663 168.039 404.073 168.039 404.438 168.039C405.258 168.039 406.215 168.176 407.309 168.449C410.043 166.991 413.005 166.125 416.195 165.852C419.477 165.578 422.712 165.396 425.902 165.305C427.178 165.305 428.454 165.305 429.73 165.305C431.007 165.305 432.191 165.214 433.285 165.031C434.105 165.487 434.607 165.76 434.789 165.852C435.062 165.852 435.427 165.852 435.883 165.852C436.521 165.852 437.068 165.897 437.523 165.988C438.617 166.991 439.665 167.72 440.668 168.176C441.671 168.632 442.719 169.042 443.812 169.406C444.815 169.771 445.772 170.181 446.684 170.637C447.686 171.001 448.643 171.548 449.555 172.277L450.512 178.156C451.15 178.977 451.423 179.523 451.332 179.797C451.332 180.526 451.15 181.073 450.785 181.438L451.059 182.941C449.691 183.215 448.734 183.534 448.188 183.898C447.732 184.263 447.276 184.673 446.82 185.129C446.091 185.22 445.544 185.266 445.18 185.266C444.906 185.266 444.633 185.266 444.359 185.266C443.083 185.266 441.534 185.493 439.711 185.949C437.25 185.129 434.698 184.719 432.055 184.719C431.052 184.719 430.004 184.764 428.91 184.855C427.816 184.947 426.723 185.038 425.629 185.129C424.535 185.311 423.396 185.448 422.211 185.539C421.117 185.63 419.978 185.676 418.793 185.676L415.648 186.496ZM492.758 163.938C492.667 165.214 492.348 166.444 491.801 167.629C491.345 168.723 490.753 169.816 490.023 170.91C489.294 171.913 488.474 172.915 487.562 173.918C486.742 174.829 485.922 175.65 485.102 176.379C485.375 177.564 485.375 178.475 485.102 179.113C484.919 179.66 484.874 180.526 484.965 181.711C483.598 185.357 481.501 187.772 478.676 188.957C475.941 190.233 473.344 190.005 470.883 188.273C469.88 187.544 469.014 186.633 468.285 185.539C467.647 184.354 466.736 183.625 465.551 183.352C465.824 181.802 465.688 180.253 465.141 178.703C464.594 177.154 464.001 176.333 463.363 176.242C463.09 174.328 462.68 172.277 462.133 170.09C461.586 167.902 461.085 165.715 460.629 163.527C460.173 161.249 459.763 159.061 459.398 156.965C459.125 154.777 459.034 152.772 459.125 150.949C459.216 150.038 459.034 149.217 458.578 148.488C458.214 147.759 457.94 146.893 457.758 145.891C457.393 143.794 457.257 141.607 457.348 139.328C457.53 136.958 457.621 134.725 457.621 132.629C457.621 130.624 457.484 128.482 457.211 126.203C457.029 123.833 456.846 121.6 456.664 119.504C456.482 117.316 456.391 115.357 456.391 113.625C456.391 111.802 456.618 110.389 457.074 109.387C457.621 108.293 458.35 107.427 459.262 106.789C460.264 106.06 461.176 105.285 461.996 104.465C464.001 104.647 465.596 105.467 466.781 106.926C467.966 108.384 468.422 109.751 468.148 111.027C470.062 112.212 471.566 113.762 472.66 115.676C473.845 117.499 474.757 119.595 475.395 121.965C476.124 124.243 476.625 126.704 476.898 129.348C477.172 131.9 477.4 134.452 477.582 137.004C477.764 139.465 477.947 141.835 478.129 144.113C478.311 146.392 478.676 148.352 479.223 149.992C482.595 145.161 485.421 140.878 487.699 137.141C489.978 133.312 492.302 129.667 494.672 126.203C497.042 122.74 499.685 119.23 502.602 115.676C505.518 112.121 509.301 108.111 513.949 103.645C514.861 103.736 515.59 103.918 516.137 104.191C516.775 104.465 517.322 104.693 517.777 104.875C518.233 105.057 518.78 105.24 519.418 105.422C520.056 105.513 520.922 105.467 522.016 105.285C522.38 106.197 522.654 106.88 522.836 107.336C523.018 107.701 523.155 108.111 523.246 108.566C523.428 108.931 523.611 109.432 523.793 110.07C524.066 110.708 524.477 111.62 525.023 112.805C525.297 113.078 525.388 113.443 525.297 113.898C525.206 114.354 525.115 114.81 525.023 115.266C525.023 115.63 525.023 115.904 525.023 116.086C525.023 116.268 525.251 116.268 525.707 116.086C525.434 117.362 524.932 118.547 524.203 119.641C523.565 120.643 523.292 121.874 523.383 123.332C521.286 126.066 518.962 128.892 516.41 131.809C513.949 134.725 511.443 137.733 508.891 140.832C506.43 143.931 504.06 147.212 501.781 150.676C499.503 154.048 497.543 157.603 495.902 161.34C495.447 161.34 495.082 161.477 494.809 161.75C494.626 162.023 494.444 162.342 494.262 162.707C494.079 162.98 493.852 163.254 493.578 163.527C493.396 163.801 493.122 163.938 492.758 163.938ZM591.469 111.027C591.56 111.665 591.56 112.167 591.469 112.531C591.469 112.805 591.423 113.078 591.332 113.352C591.332 113.625 591.332 113.944 591.332 114.309C591.332 114.582 591.423 115.038 591.605 115.676C589.691 118.775 587.458 120.917 584.906 122.102C582.445 123.195 579.757 124.016 576.84 124.562C573.923 125.018 570.915 125.52 567.816 126.066C564.809 126.613 561.801 127.798 558.793 129.621C557.608 129.165 556.514 129.165 555.512 129.621C554.6 130.077 553.233 130.214 551.41 130.031C550.863 130.578 550.18 130.988 549.359 131.262C548.539 131.444 547.719 131.672 546.898 131.945C547.263 132.766 547.4 133.632 547.309 134.543C547.309 135.363 547.445 136.047 547.719 136.594C550.909 136.867 554.418 136.822 558.246 136.457C562.165 136.092 565.993 135.865 569.73 135.773C569.822 136.229 569.776 136.548 569.594 136.73C569.411 136.822 569.366 137.049 569.457 137.414C570.095 137.87 570.733 138.462 571.371 139.191C572.009 139.829 572.647 140.467 573.285 141.105C573.923 141.743 574.561 142.29 575.199 142.746C575.928 143.111 576.749 143.247 577.66 143.156C578.025 143.885 578.253 144.706 578.344 145.617C578.526 146.438 578.435 147.303 578.07 148.215C576.612 149.217 575.154 150.266 573.695 151.359C572.237 152.362 570.688 153.273 569.047 154.094C567.497 154.914 565.811 155.598 563.988 156.145C562.257 156.6 560.297 156.783 558.109 156.691C557.654 156.691 557.289 156.691 557.016 156.691C556.833 156.691 556.56 156.555 556.195 156.281C555.466 156.737 554.418 156.874 553.051 156.691C551.775 156.509 550.772 156.646 550.043 157.102C549.04 156.646 547.81 156.464 546.352 156.555C544.984 156.555 543.754 156.372 542.66 156.008C541.202 157.922 539.88 159.973 538.695 162.16C537.51 164.348 536.462 166.672 535.551 169.133C538.65 169.589 541.202 169.771 543.207 169.68C545.303 169.589 547.263 169.452 549.086 169.27C550.909 168.996 552.777 168.768 554.691 168.586C556.605 168.312 559.021 168.221 561.938 168.312C563.76 167.31 565.902 166.672 568.363 166.398C570.915 166.034 573.24 165.487 575.336 164.758C576.065 165.031 576.703 165.533 577.25 166.262C577.797 166.9 578.298 167.538 578.754 168.176C579.301 168.723 579.848 169.224 580.395 169.68C580.941 170.135 581.625 170.318 582.445 170.227C582.81 170.591 583.038 171.047 583.129 171.594C583.311 172.049 583.448 172.505 583.539 172.961C583.63 173.417 583.767 173.827 583.949 174.191C584.223 174.465 584.633 174.556 585.18 174.465C583.812 177.473 582.217 179.797 580.395 181.438C578.663 182.987 576.658 184.172 574.379 184.992C572.1 185.812 569.548 186.451 566.723 186.906C563.988 187.362 560.935 187.909 557.562 188.547C556.742 188.729 556.059 188.684 555.512 188.41C554.965 188.228 554.327 188.137 553.598 188.137C551.501 188.592 548.995 189.003 546.078 189.367C543.161 189.732 540.199 189.868 537.191 189.777C534.184 189.686 531.312 189.276 528.578 188.547C525.844 187.909 523.611 186.724 521.879 184.992C521.15 184.354 520.648 183.625 520.375 182.805C520.193 181.893 519.6 181.21 518.598 180.754C518.507 179.569 518.324 178.247 518.051 176.789C517.777 175.331 517.504 173.827 517.23 172.277C516.957 170.637 516.729 169.042 516.547 167.492C516.456 165.943 516.547 164.53 516.82 163.254C517.094 161.887 517.641 160.656 518.461 159.562C519.372 158.469 519.691 157.284 519.418 156.008C519.874 155.917 520.147 155.689 520.238 155.324C520.329 154.868 520.694 154.686 521.332 154.777C521.879 153.137 522.471 151.587 523.109 150.129C523.747 148.671 524.385 147.258 525.023 145.891C525.753 144.523 526.436 143.156 527.074 141.789C527.803 140.331 528.487 138.736 529.125 137.004C527.849 135.819 526.892 134.543 526.254 133.176C525.707 131.717 525.297 130.305 525.023 128.938C524.75 127.479 524.522 126.021 524.34 124.562C524.158 123.013 523.839 121.464 523.383 119.914C524.294 118.547 525.388 117.453 526.664 116.633C528.031 115.721 529.49 114.992 531.039 114.445C532.589 113.898 534.275 113.443 536.098 113.078C537.921 112.714 539.835 112.303 541.84 111.848C545.486 110.663 548.721 109.751 551.547 109.113C554.464 108.475 557.289 107.974 560.023 107.609C562.849 107.154 565.766 106.743 568.773 106.379C571.781 106.014 575.199 105.467 579.027 104.738C579.848 105.559 580.622 105.969 581.352 105.969C581.716 105.148 582.126 104.921 582.582 105.285C583.129 105.559 583.357 105.285 583.266 104.465C584.177 106.014 585.316 107.336 586.684 108.43C588.142 109.432 589.737 110.298 591.469 111.027Z" fill="black"/>
<path d="M79.9 230.9C80.8667 230.9 81.8833 230.65 82.95 230.15C84.0167 229.65 84.85 229.15 85.45 228.65L86.35 227.9L88.65 230.7C88.3167 231.267 87.8 231.917 87.1 232.65C86.4 233.383 85.6833 234.017 84.95 234.55C84.25 235.05 83.3 235.517 82.1 235.95C80.9333 236.35 79.7167 236.55 78.45 236.55C75.75 236.55 73.55 235.533 71.85 233.5C70.15 231.433 69.3 228.783 69.3 225.55C69.3 221.483 70.4833 217.917 72.85 214.85C75.2167 211.783 77.9833 210.25 81.15 210.25C83.5833 210.25 85.4667 210.933 86.8 212.3C88.1667 213.667 88.85 215.583 88.85 218.05C88.85 219.517 88.6 221.183 88.1 223.05L87.1 224.1L74.6 225.25C75.1667 229.017 76.9333 230.9 79.9 230.9ZM79.9 215.4C78.4333 215.4 77.2 216 76.2 217.2C75.2 218.367 74.6167 219.867 74.45 221.7L82.95 220.65C83.05 219.883 83.1 219.25 83.1 218.75C83.1 216.517 82.0333 215.4 79.9 215.4ZM107.714 223.35C107.714 221.05 107.514 219.517 107.114 218.75C106.714 217.983 105.781 217.6 104.314 217.6C102.848 217.6 101.181 218.183 99.3145 219.35V223L99.8645 234.75L93.1645 236L93.7645 223.85C93.6311 219.383 93.2645 215.383 92.6645 211.85L98.7145 210.55C98.9478 212.483 99.1145 214.367 99.2145 216.2C99.7145 215.533 100.281 214.883 100.914 214.25C101.548 213.583 102.548 212.85 103.914 212.05C105.281 211.217 106.714 210.8 108.214 210.8C109.748 210.8 111.031 211.4 112.064 212.6C113.098 213.767 113.614 215.367 113.614 217.4L113.314 223L113.864 235L107.114 236.25L107.714 223.35ZM133.986 223.35C133.986 221.05 133.786 219.517 133.386 218.75C132.986 217.983 132.053 217.6 130.586 217.6C129.12 217.6 127.453 218.183 125.586 219.35V223L126.136 234.75L119.386 236L119.986 223.85L119.386 198.55L126.236 197.3L125.586 210.25V216.1C126.086 215.433 126.653 214.783 127.286 214.15C127.92 213.517 128.903 212.8 130.236 212C131.57 211.2 132.986 210.8 134.486 210.8C136.02 210.8 137.303 211.4 138.336 212.6C139.37 213.767 139.886 215.367 139.886 217.4L139.586 223L140.136 235L133.386 236.25L133.986 223.35ZM150.656 236C148.689 236 147.073 235.383 145.806 234.15C144.573 232.883 143.956 231.2 143.956 229.1C143.956 226.967 144.923 225.133 146.856 223.6C148.789 222.033 151.139 221.25 153.906 221.25H157.306V220.4C157.306 218.767 156.973 217.65 156.306 217.05C155.639 216.45 154.389 216.15 152.556 216.15C151.789 216.15 150.873 216.317 149.806 216.65C148.773 216.95 147.606 217.433 146.306 218.1L144.856 214.15C146.289 213.15 148.023 212.25 150.056 211.45C152.123 210.65 153.823 210.25 155.156 210.25C160.389 210.25 163.006 212.783 163.006 217.85V227.65C163.006 229.517 163.589 231.6 164.756 233.9L159.456 236.15C158.623 234.55 158.006 233.117 157.606 231.85C155.773 234.617 153.456 236 150.656 236ZM152.756 230.9C154.089 230.9 155.606 230.217 157.306 228.85V225.5C155.539 225.1 154.106 224.9 153.006 224.9C150.906 224.9 149.856 225.833 149.856 227.7C149.856 228.667 150.123 229.45 150.656 230.05C151.189 230.617 151.889 230.9 152.756 230.9ZM183.593 223.35C183.593 221.05 183.393 219.517 182.993 218.75C182.593 217.983 181.66 217.6 180.193 217.6C178.727 217.6 177.06 218.183 175.193 219.35V223L175.743 234.75L169.043 236L169.643 223.85C169.51 219.383 169.143 215.383 168.543 211.85L174.593 210.55C174.827 212.483 174.993 214.367 175.093 216.2C175.593 215.533 176.16 214.883 176.793 214.25C177.427 213.583 178.427 212.85 179.793 212.05C181.16 211.217 182.593 210.8 184.093 210.8C185.627 210.8 186.91 211.4 187.943 212.6C188.977 213.767 189.493 215.367 189.493 217.4L189.193 223L189.743 235L182.993 236.25L183.593 223.35ZM203.865 216.75C202.399 216.75 201.265 217.283 200.465 218.35C199.665 219.383 199.265 220.983 199.265 223.15C199.265 225.317 199.665 227.067 200.465 228.4C201.299 229.7 202.499 230.35 204.065 230.35C204.865 230.35 205.649 230.1 206.415 229.6C207.182 229.1 207.765 228.6 208.165 228.1L208.715 227.3L211.215 229.9C211.115 230.067 210.982 230.3 210.815 230.6C210.682 230.9 210.315 231.433 209.715 232.2C209.149 232.967 208.532 233.65 207.865 234.25C207.232 234.817 206.399 235.35 205.365 235.85C204.332 236.317 203.249 236.55 202.115 236.55C199.615 236.55 197.582 235.533 196.015 233.5C194.449 231.467 193.665 228.817 193.665 225.55C193.665 221.483 194.849 217.917 197.215 214.85C199.582 211.783 202.349 210.25 205.515 210.25C206.482 210.25 207.449 210.4 208.415 210.7C209.382 210.967 210.365 211.4 211.365 212L207.865 218.15C206.665 217.217 205.332 216.75 203.865 216.75ZM223.504 230.9C224.47 230.9 225.487 230.65 226.554 230.15C227.62 229.65 228.454 229.15 229.054 228.65L229.954 227.9L232.254 230.7C231.92 231.267 231.404 231.917 230.704 232.65C230.004 233.383 229.287 234.017 228.554 234.55C227.854 235.05 226.904 235.517 225.704 235.95C224.537 236.35 223.32 236.55 222.054 236.55C219.354 236.55 217.154 235.533 215.454 233.5C213.754 231.433 212.904 228.783 212.904 225.55C212.904 221.483 214.087 217.917 216.454 214.85C218.82 211.783 221.587 210.25 224.754 210.25C227.187 210.25 229.07 210.933 230.404 212.3C231.77 213.667 232.454 215.583 232.454 218.05C232.454 219.517 232.204 221.183 231.704 223.05L230.704 224.1L218.204 225.25C218.77 229.017 220.537 230.9 223.504 230.9ZM223.504 215.4C222.037 215.4 220.804 216 219.804 217.2C218.804 218.367 218.22 219.867 218.054 221.7L226.554 220.65C226.654 219.883 226.704 219.25 226.704 218.75C226.704 216.517 225.637 215.4 223.504 215.4ZM264.983 219.7C265.416 222.4 265.633 224.233 265.633 225.2C265.633 226.133 265.583 226.85 265.483 227.35L271.133 232.9L267.033 236.55C265.899 235.317 264.566 233.9 263.033 232.3C261.933 233.6 260.599 234.633 259.033 235.4C257.466 236.167 255.833 236.55 254.133 236.55C251.099 236.55 248.583 235.733 246.583 234.1C244.583 232.433 243.583 230.35 243.583 227.85C243.583 224.483 245.549 221.65 249.483 219.35C246.816 216.583 245.483 214.083 245.483 211.85C245.483 209.583 246.483 207.633 248.483 206C250.483 204.333 252.899 203.5 255.733 203.5C257.466 203.5 259.066 203.683 260.533 204.05C262.033 204.417 263.099 204.767 263.733 205.1L264.633 205.65L261.533 211.55C260.666 210.817 259.583 210.167 258.283 209.6C257.016 209 255.799 208.7 254.633 208.7C253.499 208.7 252.599 208.967 251.933 209.5C251.299 210.033 250.983 210.717 250.983 211.55C250.983 212.717 251.383 213.783 252.183 214.75C252.983 215.717 254.899 217.533 257.933 220.2L261.383 223.4C261.216 221.667 260.783 219.133 260.083 215.8L260.733 215.15H271.233L270.833 219.7H264.983ZM251.733 221.55C250.166 223.05 249.383 224.567 249.383 226.1C249.383 227.633 249.916 228.917 250.983 229.95C252.083 230.983 253.633 231.5 255.633 231.5C257.633 231.5 259.166 230.817 260.233 229.45C258.066 227.25 256.033 225.3 254.133 223.6C253.333 223 252.533 222.317 251.733 221.55ZM290.735 210.55L290.135 223L290.685 234.75L283.985 236L284.585 223.85L284.035 211.8L290.735 210.55ZM283.685 203.25C283.685 202.117 284.118 201.117 284.985 200.25C285.851 199.35 286.851 198.9 287.985 198.9C289.118 198.9 289.985 199.217 290.585 199.85C291.185 200.45 291.485 201.367 291.485 202.6C291.485 203.833 291.051 204.9 290.185 205.8C289.351 206.667 288.368 207.1 287.235 207.1C286.135 207.1 285.268 206.733 284.635 206C284.001 205.267 283.685 204.35 283.685 203.25ZM310.742 223.35C310.742 221.05 310.542 219.517 310.142 218.75C309.742 217.983 308.808 217.6 307.342 217.6C305.875 217.6 304.208 218.183 302.342 219.35V223L302.892 234.75L296.192 236L296.792 223.85C296.658 219.383 296.292 215.383 295.692 211.85L301.742 210.55C301.975 212.483 302.142 214.367 302.242 216.2C302.742 215.533 303.308 214.883 303.942 214.25C304.575 213.583 305.575 212.85 306.942 212.05C308.308 211.217 309.742 210.8 311.242 210.8C312.775 210.8 314.058 211.4 315.092 212.6C316.125 213.767 316.642 215.367 316.642 217.4L316.342 223L316.892 235L310.142 236.25L310.742 223.35ZM330.914 229.75H331.564L333.214 222.9L335.914 210.55L342.114 211.3L338.364 223.7L335.214 235.4L326.664 236.15L323.714 224L320.114 211.85L326.914 210.6L329.064 221.6L330.914 229.75ZM343.912 225.55C343.912 221.283 345.062 217.667 347.362 214.7C349.662 211.733 352.345 210.25 355.412 210.25C358.512 210.25 360.912 211.25 362.612 213.25C364.345 215.25 365.212 217.9 365.212 221.2C365.212 225.6 364.095 229.267 361.862 232.2C359.662 235.1 356.878 236.55 353.512 236.55C350.745 236.55 348.445 235.517 346.612 233.45C344.812 231.35 343.912 228.717 343.912 225.55ZM359.612 223.8C359.612 218.967 357.962 216.55 354.662 216.55C351.228 216.55 349.512 218.817 349.512 223.35C349.512 225.717 349.995 227.567 350.962 228.9C351.928 230.233 353.195 230.9 354.762 230.9C356.362 230.9 357.562 230.3 358.362 229.1C359.195 227.867 359.612 226.1 359.612 223.8ZM376.383 197.3L375.733 223L376.283 234.75L369.533 236L370.133 223.85L369.533 198.55L376.383 197.3ZM390.679 229.75H391.329L392.979 222.9L395.679 210.55L401.879 211.3L398.129 223.7L394.979 235.4L386.429 236.15L383.479 224L379.879 211.85L386.679 210.6L388.829 221.6L390.679 229.75ZM414.177 230.9C415.144 230.9 416.161 230.65 417.227 230.15C418.294 229.65 419.127 229.15 419.727 228.65L420.627 227.9L422.927 230.7C422.594 231.267 422.077 231.917 421.377 232.65C420.677 233.383 419.961 234.017 419.227 234.55C418.527 235.05 417.577 235.517 416.377 235.95C415.211 236.35 413.994 236.55 412.727 236.55C410.027 236.55 407.827 235.533 406.127 233.5C404.427 231.433 403.577 228.783 403.577 225.55C403.577 221.483 404.761 217.917 407.127 214.85C409.494 211.783 412.261 210.25 415.427 210.25C417.861 210.25 419.744 210.933 421.077 212.3C422.444 213.667 423.127 215.583 423.127 218.05C423.127 219.517 422.877 221.183 422.377 223.05L421.377 224.1L408.877 225.25C409.444 229.017 411.211 230.9 414.177 230.9ZM414.177 215.4C412.711 215.4 411.477 216 410.477 217.2C409.477 218.367 408.894 219.867 408.727 221.7L417.227 220.65C417.327 219.883 417.377 219.25 417.377 218.75C417.377 216.517 416.311 215.4 414.177 215.4Z" fill="black"/>
</svg>
